<svg xmlns="http://www.w3.org/2000/svg" width="699.205322265625" height="266.08905029296875" viewBox="-348.32763671875 -40.427005767822266 699.205322265625 266.08905029296875"><title>Neo4j Graph Visualization</title><desc>Created using Neo4j (http://www.neo4j.com/)</desc><g class="layer relationships"><g class="relationship" transform="translate(195.75678416040026 181.6620370550765) rotate(245.99083266367455)"><path class="outline" fill="#A5ABB6" stroke="none" d="M 40 0.5 L 41.46476756167769 0.5 L 41.46476756167769 -0.5 L 40 -0.5 Z M 41.46476756167769 0.5 L 42.92953512335538 0.5 L 42.92953512335538 3.5 L 49.92953512335538 0 L 42.92953512335538 -3.5 L 42.92953512335538 -0.5 L 41.46476756167769 -0.5 Z"/><text text-anchor="middle" pointer-events="none" font-size="8px" fill="#000000" x="41.46476756167769" y="3" transform="rotate(180 41.46476756167769 0)" font-family="sans-serif"/></g><g class="relationship" transform="translate(228.79547915432545 42.60569540366326) rotate(500.7412134196825)"><path class="outline" fill="#A5ABB6" stroke="none" d="M 40 0.5 L 41.463109652645734 0.5 L 41.463109652645734 -0.5 L 40 -0.5 Z M 41.463109652645734 0.5 L 42.92621930529147 0.5 L 42.92621930529147 3.5 L 49.92621930529147 0 L 42.92621930529147 -3.5 L 42.92621930529147 -0.5 L 41.463109652645734 -0.5 Z"/><text text-anchor="middle" pointer-events="none" font-size="8px" fill="#000000" x="41.463109652645734" y="3" transform="rotate(180 41.463109652645734 0)" font-family="sans-serif"/></g><g class="relationship" transform="translate(122.98998532225599 3.5729939024621205) rotate(484.55066603872285)"><path class="outline" fill="#A5ABB6" stroke="none" d="M 40 0.5 L 41.479116078180006 0.5 L 41.479116078180006 -0.5 L 40 -0.5 Z M 41.479116078180006 0.5 L 42.95823215636001 0.5 L 42.95823215636001 3.5 L 49.95823215636001 0 L 42.95823215636001 -3.5 L 42.95823215636001 -0.5 L 41.479116078180006 -0.5 Z"/><text text-anchor="middle" pointer-events="none" font-size="8px" fill="#000000" x="41.479116078180006" y="3" transform="rotate(180 41.479116078180006 0)" font-family="sans-serif"/></g><g class="relationship" transform="translate(83.3826920137837 166.894260188797) rotate(262.71225817570877)"><path class="outline" fill="#A5ABB6" stroke="none" d="M 40 0.5 L 41.47805922142218 0.5 L 41.47805922142218 -0.5 L 40 -0.5 Z M 41.47805922142218 0.5 L 42.95611844284436 0.5 L 42.95611844284436 3.5 L 49.95611844284436 0 L 42.95611844284436 -3.5 L 42.95611844284436 -0.5 L 41.47805922142218 -0.5 Z"/><text text-anchor="middle" pointer-events="none" font-size="8px" fill="#000000" x="41.47805922142218" y="3" transform="rotate(180 41.47805922142218 0)" font-family="sans-serif"/></g><g class="relationship" transform="translate(159.16600262764157 99.51317221614683) rotate(194.066985281205)"><path class="outline" fill="#A5ABB6" stroke="none" d="M 40 0.5 L 41.44503111035174 0.5 L 41.44503111035174 -0.5 L 40 -0.5 Z M 41.44503111035174 0.5 L 42.890062220703484 0.5 L 42.890062220703484 3.5 L 49.890062220703484 0 L 42.890062220703484 -3.5 L 42.890062220703484 -0.5 L 41.44503111035174 -0.5 Z"/><text text-anchor="middle" pointer-events="none" font-size="8px" fill="#000000" x="41.44503111035174" y="3" transform="rotate(180 41.44503111035174 0)" font-family="sans-serif"/></g><g class="relationship" transform="translate(195.75678416040026 181.6620370550765) rotate(337.4097798175652)"><path class="outline" fill="#A5ABB6" stroke="none" d="M 40 0.5 L 41.67753133888557 0.5 L 41.67753133888557 -0.5 L 40 -0.5 Z M 71.67753133888557 0.5 L 73.35506267777114 0.5 L 73.35506267777114 3.5 L 80.35506267777114 0 L 73.35506267777114 -3.5 L 73.35506267777114 -0.5 L 71.67753133888557 -0.5 Z"/><text text-anchor="middle" pointer-events="none" font-size="8px" fill="#000000" x="56.67753133888557" y="3" font-family="sans-serif">TRA…</text></g><g class="relationship" transform="translate(71.97154300591131 77.6648428219713) rotate(196.1120635193647)"><path class="outline" fill="#A5ABB6" stroke="none" d="M 40 0.5 L 41.47607039454254 0.5 L 41.47607039454254 -0.5 L 40 -0.5 Z M 41.47607039454254 0.5 L 42.95214078908508 0.5 L 42.95214078908508 3.5 L 49.95214078908508 0 L 42.95214078908508 -3.5 L 42.95214078908508 -0.5 L 41.47607039454254 -0.5 Z"/><text text-anchor="middle" pointer-events="none" font-size="8px" fill="#000000" x="41.47607039454254" y="3" transform="rotate(180 41.47607039454254 0)" font-family="sans-serif"/></g><g class="relationship" transform="translate(159.16600262764157 99.51317221614683) rotate(195.08987740143658)"><path class="outline" fill="#A5ABB6" stroke="none" d="M 40 0.5 L 42.80521928106083 0.5 L 42.80521928106083 -0.5 L 40 -0.5 Z M 130.00834428106083 0.5 L 132.81356356212166 0.5 L 132.81356356212166 3.5 L 139.81356356212166 0 L 132.81356356212166 -3.5 L 132.81356356212166 -0.5 L 130.00834428106083 -0.5 Z"/><text text-anchor="middle" pointer-events="none" font-size="8px" fill="#000000" x="86.40678178106083" y="3" transform="rotate(180 86.40678178106083 0)" font-family="sans-serif">TRAVEL_PREDICTED</text></g><g class="relationship" transform="translate(-304.3276347250271 110.40213802927929) rotate(374.64569611390584)"><path class="outline" fill="#A5ABB6" stroke="none" d="M 40 0.5 L 41.5324764518564 0.5 L 41.5324764518564 -0.5 L 40 -0.5 Z M 95.8449764518564 0.5 L 97.3774529037128 0.5 L 97.3774529037128 3.5 L 104.3774529037128 0 L 97.3774529037128 -3.5 L 97.3774529037128 -0.5 L 95.8449764518564 -0.5 Z"/><text text-anchor="middle" pointer-events="none" font-size="8px" fill="#000000" x="68.6887264518564" y="3" font-family="sans-serif">TRAVEL_P…</text></g><g class="relationship" transform="translate(195.75678416040026 181.6620370550765) rotate(220.03503294950917)"><path class="outline" fill="#A5ABB6" stroke="none" d="M 40 0.5 L 40.62367649662076 0.5 L 40.62367649662076 -0.5 L 40 -0.5 Z M 114.04945774662076 0.5 L 114.67313424324152 0.5 L 114.67313424324152 3.5 L 121.67313424324152 0 L 114.67313424324152 -3.5 L 114.67313424324152 -0.5 L 114.04945774662076 -0.5 Z"/><text text-anchor="middle" pointer-events="none" font-size="8px" fill="#000000" x="77.33656712162076" y="3" transform="rotate(180 77.33656712162076 0)" font-family="sans-serif">TRAVEL_PREDI…</text></g><g class="relationship" transform="translate(195.75678416040026 181.6620370550765) rotate(247.77518105828221)"><path class="outline" fill="#A5ABB6" stroke="none" d="M 40 0.5 L 87.46623517915273 0.5 L 87.46623517915273 -0.5 L 40 -0.5 Z M 97.91545392915273 0.5 L 145.38168910830547 0.5 L 145.38168910830547 3.5 L 152.38168910830547 0 L 145.38168910830547 -3.5 L 145.38168910830547 -0.5 L 97.91545392915273 -0.5 Z"/><text text-anchor="middle" pointer-events="none" font-size="8px" fill="#000000" x="92.69084455415273" y="3" transform="rotate(180 92.69084455415273 0)" font-family="sans-serif">3</text></g><g class="relationship" transform="translate(195.75678416040026 181.6620370550765) rotate(283.3652161606872)"><path class="outline" fill="#A5ABB6" stroke="none" d="M 38.50762352901147,10.835724717245364 L 38.766442574113995,9.869798890956295 A 118.10092597168446 118.10092597168446 0 0 0 62.70476813010636,13.707832139889035 L 62.64864288574281,14.706255876057767 A 119.10092597168446 119.10092597168446 0 0 1 38.50762352901147,10.835724717245364 Z M 73.13775188860852,14.833209041064379 L 73.10580805275887,13.833719375609448 A 118.10092597168446 118.10092597168446 0 0 0 97.1300135256381,10.576192546638548 L 96.42391909402103,7.660471254464115 L 104.05104561264797,9.414592421561096 L 98.07147276779422,14.463820936204462 L 97.36537833617714,11.548099644030028 A 119.10092597168446 119.10092597168446 0 0 1 73.13775188860852,14.833209041064379"/><text text-anchor="middle" pointer-events="none" font-size="8px" fill="#000000" x="67.89785024807473" y="17.38530434963654" font-family="sans-serif">7</text></g><g class="relationship" transform="translate(195.75678416040026 181.6620370550765) rotate(187.4866917512516)"><path class="outline" fill="#A5ABB6" stroke="none" d="M 40 0.5 L 47.945541099805716 0.5 L 47.945541099805716 -0.5 L 40 -0.5 Z M 58.394759849805716 0.5 L 66.34030094961143 0.5 L 66.34030094961143 3.5 L 73.34030094961143 0 L 66.34030094961143 -3.5 L 66.34030094961143 -0.5 L 58.394759849805716 -0.5 Z"/><text text-anchor="middle" pointer-events="none" font-size="8px" fill="#000000" x="53.170150474805716" y="3" transform="rotate(180 53.170150474805716 0)" font-family="sans-serif">6</text></g><g class="relationship" transform="translate(159.16600262764157 99.51317221614683) rotate(249.3401217403117)"><path class="outline" fill="#A5ABB6" stroke="none" d="M 38.50762352901147,10.835724717245364 L 38.766442574113995,9.869798890956295 A 36.82423404854835 36.82423404854835 0 0 0 42.55579616996493,10.674209947831862 L 42.39988092432379,11.661980384814399 A 37.82423404854835 37.82423404854835 0 0 1 38.50762352901147,10.835724717245364 Z M 52.95308173942545,11.836915200146315 L 52.82999065273594,10.844519823102672 A 36.82423404854835 36.82423404854835 0 0 0 56.643923613716716,10.166144416740991 L 55.963936521342575,7.244224234017896 L 63.57506855546629,9.066494564988517 L 57.55057307021556,14.062037993705118 L 56.87058597784142,11.140117810982023 A 37.82423404854835 37.82423404854835 0 0 1 52.95308173942545,11.836915200146315"/><text text-anchor="middle" pointer-events="none" font-size="8px" fill="#000000" x="47.678636612139954" y="14.61942733080327" transform="rotate(180 47.678636612139954 11.61942733080327)" font-family="sans-serif">2</text></g><g class="relationship" transform="translate(159.16600262764157 99.51317221614683) rotate(498.3587980606026)"><path class="outline" fill="#A5ABB6" stroke="none" d="M 40 0.5 L 41.97874649020503 0.5 L 41.97874649020503 -0.5 L 40 -0.5 Z M 52.42796524020503 0.5 L 54.406711730410066 0.5 L 54.406711730410066 3.5 L 61.406711730410066 0 L 54.406711730410066 -3.5 L 54.406711730410066 -0.5 L 52.42796524020503 -0.5 Z"/><text text-anchor="middle" pointer-events="none" font-size="8px" fill="#000000" x="47.20335586520503" y="3" transform="rotate(180 47.20335586520503 0)" font-family="sans-serif">4</text></g><g class="relationship" transform="translate(159.16600262764157 99.51317221614683) rotate(373.66620600959413)"><path class="outline" fill="#A5ABB6" stroke="none" d="M 40 0.5 L 67.28312180933007 0.5 L 67.28312180933007 -0.5 L 40 -0.5 Z M 77.73234055933007 0.5 L 105.01546236866014 0.5 L 105.01546236866014 3.5 L 112.01546236866014 0 L 105.01546236866014 -3.5 L 105.01546236866014 -0.5 L 77.73234055933007 -0.5 Z"/><text text-anchor="middle" pointer-events="none" font-size="8px" fill="#000000" x="72.50773118433007" y="3" font-family="sans-serif">4</text></g><g class="relationship" transform="translate(228.79547915432545 42.60569540366326) rotate(499.4785198003175)"><path class="outline" fill="#A5ABB6" stroke="none" d="M 40 0.5 L 86.9212556693511 0.5 L 86.9212556693511 -0.5 L 40 -0.5 Z M 97.3704744193511 0.5 L 144.2917300887022 0.5 L 144.2917300887022 3.5 L 151.2917300887022 0 L 144.2917300887022 -3.5 L 144.2917300887022 -0.5 L 97.3704744193511 -0.5 Z"/><text text-anchor="middle" pointer-events="none" font-size="8px" fill="#000000" x="92.1458650443511" y="3" transform="rotate(180 92.1458650443511 0)" font-family="sans-serif">6</text></g><g class="relationship" transform="translate(228.79547915432545 42.60569540366326) rotate(463.3652161606872)"><path class="outline" fill="#A5ABB6" stroke="none" d="M 38.50762352901147,10.835724717245364 L 38.766442574113995,9.869798890956295 A 118.10092597168446 118.10092597168446 0 0 0 62.70476813010636,13.707832139889035 L 62.64864288574281,14.706255876057767 A 119.10092597168446 119.10092597168446 0 0 1 38.50762352901147,10.835724717245364 Z M 73.13775188860852,14.833209041064379 L 73.10580805275887,13.833719375609448 A 118.10092597168446 118.10092597168446 0 0 0 97.1300135256381,10.576192546638548 L 96.42391909402103,7.660471254464115 L 104.05104561264797,9.414592421561096 L 98.07147276779422,14.463820936204462 L 97.36537833617714,11.548099644030028 A 119.10092597168446 119.10092597168446 0 0 1 73.13775188860852,14.833209041064379"/><text text-anchor="middle" pointer-events="none" font-size="8px" fill="#000000" x="67.89785024807473" y="17.38530434963654" transform="rotate(180 67.89785024807473 14.385304349636542)" font-family="sans-serif">6</text></g><g class="relationship" transform="translate(228.79547915432545 42.60569540366326) rotate(409.92975678767505)"><path class="outline" fill="#A5ABB6" stroke="none" d="M 38.50762352901147,-10.835724717245364 L 38.766442574113995,-9.869798890956295 A 74.84694931962694 74.84694931962694 0 0 1 49.69762659611675,-11.942690967939612 L 49.58485470619382,-12.936311871928254 A 75.84694931962694 75.84694931962694 0 0 0 38.50762352901147,-10.835724717245364 Z M 64.5562398656516,-13.148122179227087 L 64.47162233788856,-12.151708673700753 A 74.84694931962694 74.84694931962694 0 0 1 75.45707280902533,-10.388886041695642 L 74.76290366356517,-7.470302618613291 L 82.38279565379419,-9.255588606135632 L 76.3826316696389,-14.280330605805444 L 75.68846252417873,-11.361747182723093 A 75.84694931962694 75.84694931962694 0 0 0 64.5562398656516,-13.148122179227087"/><text text-anchor="middle" pointer-events="none" font-size="8px" fill="#000000" x="57.072380961260976" y="-9.912607375808562" font-family="sans-serif">10</text></g><g class="relationship" transform="translate(228.79547915432545 42.60569540366326) rotate(200.24952051091003)"><path class="outline" fill="#A5ABB6" stroke="none" d="M 40 0.5 L 47.66323131678824 0.5 L 47.66323131678824 -0.5 L 40 -0.5 Z M 58.11245006678824 0.5 L 65.77568138357648 0.5 L 65.77568138357648 3.5 L 72.77568138357648 0 L 65.77568138357648 -3.5 L 65.77568138357648 -0.5 L 58.11245006678824 -0.5 Z"/><text text-anchor="middle" pointer-events="none" font-size="8px" fill="#000000" x="52.88784069178824" y="3" transform="rotate(180 52.88784069178824 0)" font-family="sans-serif">8</text></g><g class="relationship" transform="translate(122.98998532225599 3.5729939024621205) rotate(520.3299666661915)"><path class="outline" fill="#A5ABB6" stroke="none" d="M 40 0.5 L 64.25250970458731 0.5 L 64.25250970458731 -0.5 L 40 -0.5 Z M 74.70172845458731 0.5 L 98.95423815917462 0.5 L 98.95423815917462 3.5 L 105.95423815917462 0 L 98.95423815917462 -3.5 L 98.95423815917462 -0.5 L 74.70172845458731 -0.5 Z"/><text text-anchor="middle" pointer-events="none" font-size="8px" fill="#000000" x="69.47711907958731" y="3" transform="rotate(180 69.47711907958731 0)" font-family="sans-serif">4</text></g><g class="relationship" transform="translate(122.98998532225599 3.5729939024621205) rotate(463.6317194114866)"><path class="outline" fill="#A5ABB6" stroke="none" d="M 40 0.5 L 73.07841614560334 0.5 L 73.07841614560334 -0.5 L 40 -0.5 Z M 87.97685364560334 0.5 L 121.05526979120668 0.5 L 121.05526979120668 3.5 L 128.05526979120668 0 L 121.05526979120668 -3.5 L 121.05526979120668 -0.5 L 87.97685364560334 -0.5 Z"/><text text-anchor="middle" pointer-events="none" font-size="8px" fill="#000000" x="80.52763489560334" y="3" transform="rotate(180 80.52763489560334 0)" font-family="sans-serif">26</text></g><g class="relationship" transform="translate(122.98998532225599 3.5729939024621205) rotate(429.3401217403117)"><path class="outline" fill="#A5ABB6" stroke="none" d="M 38.50762352901147,10.835724717245364 L 38.766442574113995,9.869798890956295 A 36.82423404854835 36.82423404854835 0 0 0 42.55579616996493,10.674209947831862 L 42.39988092432379,11.661980384814399 A 37.82423404854835 37.82423404854835 0 0 1 38.50762352901147,10.835724717245364 Z M 52.95308173942545,11.836915200146315 L 52.82999065273594,10.844519823102672 A 36.82423404854835 36.82423404854835 0 0 0 56.643923613716716,10.166144416740991 L 55.963936521342575,7.244224234017896 L 63.57506855546629,9.066494564988517 L 57.55057307021556,14.062037993705118 L 56.87058597784142,11.140117810982023 A 37.82423404854835 37.82423404854835 0 0 1 52.95308173942545,11.836915200146315"/><text text-anchor="middle" pointer-events="none" font-size="8px" fill="#000000" x="47.678636612139954" y="14.61942733080327" font-family="sans-serif">6</text></g><g class="relationship" transform="translate(71.97154300591131 77.6648428219713) rotate(347.3983142807167)"><path class="outline" fill="#A5ABB6" stroke="none" d="M 40 0.5 L 71.62290266921411 0.5 L 71.62290266921411 -0.5 L 40 -0.5 Z M 82.07212141921411 0.5 L 113.69502408842823 0.5 L 113.69502408842823 3.5 L 120.69502408842823 0 L 113.69502408842823 -3.5 L 113.69502408842823 -0.5 L 82.07212141921411 -0.5 Z"/><text text-anchor="middle" pointer-events="none" font-size="8px" fill="#000000" x="76.84751204421411" y="3" font-family="sans-serif">2</text></g><g class="relationship" transform="translate(83.3826920137837 166.894260188797) rotate(229.4129929643899)"><path class="outline" fill="#A5ABB6" stroke="none" d="M 38.50762352901147,10.835724717245364 L 38.766442574113995,9.869798890956295 A 132.88346606522185 132.88346606522185 0 0 0 64.21259303577962,14.096177336862922 L 64.14526621476746,15.093908312212676 A 133.88346606522185 133.88346606522185 0 0 1 38.50762352901147,10.835724717245364 Z M 79.09078586585794,15.266232519480639 L 79.046481877702,14.267214423231394 A 132.88346606522185 132.88346606522185 0 0 0 104.58331605433965,10.62867786018025 L 103.87388012644426,7.713767799095823 L 111.50301218485254,9.459145705271762 L 105.52923062486683,14.515224608292819 L 104.81979469697144,11.600314547208392 A 133.88346606522185 133.88346606522185 0 0 1 79.09078586585794,15.266232519480639"/><text text-anchor="middle" pointer-events="none" font-size="8px" fill="#000000" x="71.62138411402171" y="17.888827778474422" transform="rotate(180 71.62138411402171 14.888827778474422)" font-family="sans-serif">30</text></g><g class="relationship" transform="translate(306.8777008225872 135.42911596711662) rotate(229.92975678767505)"><path class="outline" fill="#A5ABB6" stroke="none" d="M 38.50762352901147,-10.835724717245364 L 38.766442574113995,-9.869798890956295 A 74.84694931962694 74.84694931962694 0 0 1 49.990715075709645,-11.975370598511077 L 49.88185902313557,-12.969428121905963 A 75.84694931962694 75.84694931962694 0 0 0 38.50762352901147,-10.835724717245364 Z M 64.25841757131033,-13.17282301500073 L 64.1777266654749,-12.17608384264146 A 74.84694931962694 74.84694931962694 0 0 1 75.45707280902533,-10.388886041695642 L 74.76290366356517,-7.470302618613291 L 82.38279565379419,-9.255588606135632 L 76.3826316696389,-14.280330605805444 L 75.68846252417873,-11.361747182723093 A 75.84694931962694 75.84694931962694 0 0 0 64.25841757131033,-13.17282301500073"/><text text-anchor="middle" pointer-events="none" font-size="8px" fill="#000000" x="57.072380961260976" y="-9.912607375808562" transform="rotate(180 57.072380961260976 -12.912607375808562)" font-family="sans-serif">11</text></g><g class="relationship" transform="translate(-14.447344687515727 52.701600196658624) rotate(409.4129929643899)"><path class="outline" fill="#A5ABB6" stroke="none" d="M 38.50762352901147,10.835724717245364 L 38.766442574113995,9.869798890956295 A 132.88346606522185 132.88346606522185 0 0 0 64.21259303577962,14.096177336862922 L 64.14526621476746,15.093908312212676 A 133.88346606522185 133.88346606522185 0 0 1 38.50762352901147,10.835724717245364 Z M 79.09078586585794,15.266232519480639 L 79.046481877702,14.267214423231394 A 132.88346606522185 132.88346606522185 0 0 0 104.58331605433965,10.62867786018025 L 103.87388012644426,7.713767799095823 L 111.50301218485254,9.459145705271762 L 105.52923062486683,14.515224608292819 L 104.81979469697144,11.600314547208392 A 133.88346606522185 133.88346606522185 0 0 1 79.09078586585794,15.266232519480639"/><text text-anchor="middle" pointer-events="none" font-size="8px" fill="#000000" x="71.62138411402171" y="17.888827778474422" font-family="sans-serif">30</text></g></g><g class="layer nodes"><g class="node" transform="translate(195.75678416040026,181.6620370550765)"><circle class="outline" cx="0" cy="0" r="40" fill="#8DCC93" stroke="#5db665" stroke-width="2px"/><text text-anchor="middle" pointer-events="none" font-family="sans-serif" dy="2.5" font-size="40" fill="#2A2C34"/><text text-anchor="middle" pointer-events="none" x="0" y="5" font-size="10px" fill="#2A2C34" font-family="sans-serif"> krabi-thailand</text></g><g class="node" transform="translate(159.16600262764157,99.51317221614683)"><circle class="outline" cx="0" cy="0" r="40" fill="#8DCC93" stroke="#5db665" stroke-width="2px"/><text text-anchor="middle" pointer-events="none" font-family="sans-serif" dy="2.5" font-size="40" fill="#2A2C34"/><text text-anchor="middle" pointer-events="none" x="0" y="5" font-size="10px" fill="#2A2C34" font-family="sans-serif"> luang-prabang-…</text></g><g class="node" transform="translate(228.79547915432545,42.60569540366326)"><circle class="outline" cx="0" cy="0" r="40" fill="#8DCC93" stroke="#5db665" stroke-width="2px"/><text text-anchor="middle" pointer-events="none" font-family="sans-serif" dy="2.5" font-size="40" fill="#2A2C34"/><text text-anchor="middle" pointer-events="none" x="0" y="5" font-size="10px" fill="#2A2C34" font-family="sans-serif"> ko-pha-ngan-th…</text></g><g class="node" transform="translate(122.98998532225599,3.5729939024621205)"><circle class="outline" cx="0" cy="0" r="40" fill="#8DCC93" stroke="#5db665" stroke-width="2px"/><text text-anchor="middle" pointer-events="none" font-family="sans-serif" dy="2.5" font-size="40" fill="#2A2C34"/><text text-anchor="middle" pointer-events="none" x="0" y="5" font-size="10px" fill="#2A2C34" font-family="sans-serif"> siem-reap-cam…</text></g><g class="node" transform="translate(71.97154300591131,77.6648428219713)"><circle class="outline" cx="0" cy="0" r="40" fill="#8DCC93" stroke="#5db665" stroke-width="2px"/><text text-anchor="middle" pointer-events="none" font-family="sans-serif" dy="2.5" font-size="40" fill="#2A2C34"/><text text-anchor="middle" pointer-events="none" x="0" y="5" font-size="10px" fill="#2A2C34" font-family="sans-serif"> yangon-myanm…</text></g><g class="node" transform="translate(83.3826920137837,166.894260188797)"><circle class="outline" cx="0" cy="0" r="40" fill="#8DCC93" stroke="#5db665" stroke-width="2px"/><text text-anchor="middle" pointer-events="none" font-family="sans-serif" dy="2.5" font-size="40" fill="#2A2C34"/><text text-anchor="middle" pointer-events="none" x="0" y="5" font-size="10px" fill="#2A2C34" font-family="sans-serif"> ho-chi-minh-cit…</text></g><g class="node" transform="translate(306.8777008225872,135.42911596711662)"><circle class="outline" cx="0" cy="0" r="40" fill="#8DCC93" stroke="#5db665" stroke-width="2px"/><text text-anchor="middle" pointer-events="none" font-family="sans-serif" dy="2.5" font-size="40" fill="#2A2C34"/><text text-anchor="middle" pointer-events="none" x="0" y="5" font-size="10px" fill="#2A2C34" font-family="sans-serif"> penang-malaysia</text></g><g class="node" transform="translate(-14.447344687515727,52.701600196658624)"><circle class="outline" cx="0" cy="0" r="40" fill="#8DCC93" stroke="#5db665" stroke-width="2px"/><text text-anchor="middle" pointer-events="none" font-family="sans-serif" dy="2.5" font-size="40" fill="#2A2C34"/><text text-anchor="middle" pointer-events="none" x="0" y="5" font-size="10px" fill="#2A2C34" font-family="sans-serif"> hoi-an-vietnam</text></g><g class="node" transform="translate(-304.3276347250271,110.40213802927929)"><circle class="outline" cx="0" cy="0" r="40" fill="#8DCC93" stroke="#5db665" stroke-width="2px"/><text text-anchor="middle" pointer-events="none" font-family="sans-serif" dy="2.5" font-size="40" fill="#2A2C34"/><text text-anchor="middle" pointer-events="none" x="0" y="5" font-size="10px" fill="#2A2C34" font-family="sans-serif"> adelaide-austra…</text></g><g class="node" transform="translate(-164.64131922800138,146.90668801731763)"><circle class="outline" cx="0" cy="0" r="40" fill="#8DCC93" stroke="#5db665" stroke-width="2px"/><text text-anchor="middle" pointer-events="none" font-family="sans-serif" dy="2.5" font-size="40" fill="#2A2C34"/><text text-anchor="middle" pointer-events="none" x="0" y="5" font-size="10px" fill="#2A2C34" font-family="sans-serif"> byron-bay-aust…</text></g></g></svg>