<svg xmlns="http://www.w3.org/2000/svg" width="680.4267578125" height="419.8585205078125" viewBox="-347.1891784667969 -113.69480895996094 680.4267578125 419.8585205078125"><title>Neo4j Graph Visualization</title><desc>Created using Neo4j (http://www.neo4j.com/)</desc><g class="layer relationships"><g class="relationship" transform="translate(129.62897879276085 65.444659702273) rotate(266.94822513569255)"><path class="outline" fill="#A5ABB6" stroke="none" d="M 25 0.5 L 26.405694421198397 0.5 L 26.405694421198397 -0.5 L 25 -0.5 Z M 26.405694421198397 0.5 L 27.811388842396795 0.5 L 27.811388842396795 3.5 L 34.811388842396795 0 L 27.811388842396795 -3.5 L 27.811388842396795 -0.5 L 26.405694421198397 -0.5 Z"/><text text-anchor="middle" pointer-events="none" font-size="8px" fill="#000000" x="26.405694421198397" y="3" transform="rotate(180 26.405694421198397 0)" font-family="sans-serif"/></g><g class="relationship" transform="translate(129.62897879276085 65.444659702273) rotate(501.8854297978156)"><path class="outline" fill="#A5ABB6" stroke="none" d="M 25 0.5 L 71.83872311077054 0.5 L 71.83872311077054 -0.5 L 25 -0.5 Z M 82.28794186077054 0.5 L 129.1266649715411 0.5 L 129.1266649715411 3.5 L 136.1266649715411 0 L 129.1266649715411 -3.5 L 129.1266649715411 -0.5 L 82.28794186077054 -0.5 Z"/><text text-anchor="middle" pointer-events="none" font-size="8px" fill="#000000" x="77.06333248577054" y="3" transform="rotate(180 77.06333248577054 0)" font-family="sans-serif">1</text></g><g class="relationship" transform="translate(129.62897879276085 65.444659702273) rotate(523.41927221697)"><path class="outline" fill="#A5ABB6" stroke="none" d="M 25 0.5 L 68.40958442965548 0.5 L 68.40958442965548 -0.5 L 25 -0.5 Z M 78.85880317965548 0.5 L 122.26838760931096 0.5 L 122.26838760931096 3.5 L 129.26838760931096 0 L 122.26838760931096 -3.5 L 122.26838760931096 -0.5 L 78.85880317965548 -0.5 Z"/><text text-anchor="middle" pointer-events="none" font-size="8px" fill="#000000" x="73.63419380465548" y="3" transform="rotate(180 73.63419380465548 0)" font-family="sans-serif">2</text></g><g class="relationship" transform="translate(129.62897879276085 65.444659702273) rotate(250.47960582503595)"><path class="outline" fill="#A5ABB6" stroke="none" d="M 25 0.5 L 70.4173177233662 0.5 L 70.4173177233662 -0.5 L 25 -0.5 Z M 80.8665364733662 0.5 L 126.28385419673239 0.5 L 126.28385419673239 3.5 L 133.2838541967324 0 L 126.28385419673239 -3.5 L 126.28385419673239 -0.5 L 80.8665364733662 -0.5 Z"/><text text-anchor="middle" pointer-events="none" font-size="8px" fill="#000000" x="75.6419270983662" y="3" transform="rotate(180 75.6419270983662 0)" font-family="sans-serif">1</text></g><g class="relationship" transform="translate(129.62897879276085 65.444659702273) rotate(274.5107700240993)"><path class="outline" fill="#A5ABB6" stroke="none" d="M 25 0.5 L 65.65449098312422 0.5 L 65.65449098312422 -0.5 L 25 -0.5 Z M 76.10370973312422 0.5 L 116.75820071624844 0.5 L 116.75820071624844 3.5 L 123.75820071624844 0 L 116.75820071624844 -3.5 L 116.75820071624844 -0.5 L 76.10370973312422 -0.5 Z"/><text text-anchor="middle" pointer-events="none" font-size="8px" fill="#000000" x="70.87910035812422" y="3" font-family="sans-serif">1</text></g><g class="relationship" transform="translate(129.62897879276085 65.444659702273) rotate(467.3844106719625)"><path class="outline" fill="#A5ABB6" stroke="none" d="M 25 0.5 L 41.29065496969135 0.5 L 41.29065496969135 -0.5 L 25 -0.5 Z M 51.73987371969135 0.5 L 68.0305286893827 0.5 L 68.0305286893827 3.5 L 75.0305286893827 0 L 68.0305286893827 -3.5 L 68.0305286893827 -0.5 L 51.73987371969135 -0.5 Z"/><text text-anchor="middle" pointer-events="none" font-size="8px" fill="#000000" x="46.51526434469135" y="3" transform="rotate(180 46.51526434469135 0)" font-family="sans-serif">1</text></g><g class="relationship" transform="translate(129.62897879276085 65.444659702273) rotate(377.70297368689194)"><path class="outline" fill="#A5ABB6" stroke="none" d="M 24.018736134675446,-6.953439040707552 L 24.277555179777966,-5.987513214418485 A 186.11382431142061 186.11382431142061 0 0 1 65.0543551810863,-12.182293852988664 L 65.01463216580409,-13.181504582543198 A 187.11382431142061 187.11382431142061 0 0 0 24.018736134675446,-6.953439040707552 Z M 75.4897576538265,-13.304452219461979 L 75.47349803112581,-12.304584415865094 A 186.11382431142061 186.11382431142061 0 0 1 116.38446232673483,-7.068581559667766 L 115.67623275237321,-4.153378158530966 L 123.30464185844762,-5.901913119680129 L 117.32876842588365,-10.955519427850167 L 116.62053885152203,-8.040316026713366 A 187.11382431142061 187.11382431142061 0 0 0 75.4897576538265,-13.304452219461979"/><text text-anchor="middle" pointer-events="none" font-size="8px" fill="#000000" x="70.25720246309665" y="-9.816335398137937" font-family="sans-serif">2</text></g><g class="relationship" transform="translate(129.62897879276085 65.444659702273) rotate(195.41242883229694)"><path class="outline" fill="#A5ABB6" stroke="none" d="M 24.018736134675446,-6.953439040707552 L 24.277555179777966,-5.987513214418485 A 151.45602178124142 151.45602178124142 0 0 1 56.26662652868617,-10.976510066468421 L 56.219017780623616,-11.975376127113151 A 152.45602178124142 152.45602178124142 0 0 0 24.018736134675446,-6.953439040707552 Z M 66.69963421519277,-12.114193441616777 L 66.67849778473028,-11.11441684091676 A 151.45602178124142 151.45602178124142 0 0 1 98.78848398539115,-6.974421484799561 L 98.08904875413634,-4.05709559328872 L 105.71215027079225,-5.828626927123462 L 99.7210642937309,-10.864189340147348 L 99.0216290624761,-7.946863448636507 A 152.45602178124142 152.45602178124142 0 0 0 66.69963421519277,-12.114193441616777"/><text text-anchor="middle" pointer-events="none" font-size="8px" fill="#000000" x="61.464754656105946" y="-8.63492464171344" transform="rotate(180 61.464754656105946 -11.63492464171344)" font-family="sans-serif">1</text></g><g class="relationship" transform="translate(129.62897879276085 65.444659702273) rotate(431.19692549258707)"><path class="outline" fill="#A5ABB6" stroke="none" d="M 25 0.5 L 30.234019968752953 0.5 L 30.234019968752953 -0.5 L 25 -0.5 Z M 40.68323871875295 0.5 L 45.91725868750591 0.5 L 45.91725868750591 3.5 L 52.91725868750591 0 L 45.91725868750591 -3.5 L 45.91725868750591 -0.5 L 40.68323871875295 -0.5 Z"/><text text-anchor="middle" pointer-events="none" font-size="8px" fill="#000000" x="35.45862934375295" y="3" font-family="sans-serif">1</text></g><g class="relationship" transform="translate(129.62897879276085 65.444659702273) rotate(518.5858982951672)"><path class="outline" fill="#A5ABB6" stroke="none" d="M 25 0.5 L 39.87175387004802 0.5 L 39.87175387004802 -0.5 L 25 -0.5 Z M 50.32097262004802 0.5 L 65.19272649009604 0.5 L 65.19272649009604 3.5 L 72.19272649009604 0 L 65.19272649009604 -3.5 L 65.19272649009604 -0.5 L 50.32097262004802 -0.5 Z"/><text text-anchor="middle" pointer-events="none" font-size="8px" fill="#000000" x="45.09636324504802" y="3" transform="rotate(180 45.09636324504802 0)" font-family="sans-serif">2</text></g><g class="relationship" transform="translate(-200.27970774968674 -3.6294728863144026) rotate(289.2801364227708)"><path class="outline" fill="#A5ABB6" stroke="none" d="M 24.018736134675446,-6.953439040707552 L 24.277555179777966,-5.987513214418485 A 63.134767218098396 63.134767218098396 0 0 1 34.211021258085324,-7.812840036324111 L 34.109539707298616,-8.807677457639748 A 64.1347672180984 64.1347672180984 0 0 0 24.018736134675446,-6.953439040707552 Z M 44.6270227801935,-9.013357103789673 L 44.56451397864715,-8.015312691085875 A 63.134767218098396 63.134767218098396 0 0 1 54.561749929992914,-6.579750198969675 L 53.89918086382902,-3.6538311582984018 L 61.499322535919866,-5.521408884699131 L 55.445175351544776,-10.480975586531372 L 54.78260628538088,-7.555056545860099 A 64.1347672180984 64.1347672180984 0 0 0 44.6270227801935,-9.013357103789673"/><text text-anchor="middle" pointer-events="none" font-size="8px" fill="#000000" x="39.37383325711194" y="-5.626613609694097" font-family="sans-serif">3</text></g><g class="relationship" transform="translate(-200.27970774968674 -3.6294728863144026) rotate(483.898719370941)"><path class="outline" fill="#A5ABB6" stroke="none" d="M 25 0.5 L 70.73193967073998 0.5 L 70.73193967073998 -0.5 L 25 -0.5 Z M 81.18115842073998 0.5 L 126.91309809147995 0.5 L 126.91309809147995 3.5 L 133.91309809147995 0 L 126.91309809147995 -3.5 L 126.91309809147995 -0.5 L 81.18115842073998 -0.5 Z"/><text text-anchor="middle" pointer-events="none" font-size="8px" fill="#000000" x="75.95654904573998" y="3" transform="rotate(180 75.95654904573998 0)" font-family="sans-serif">2</text></g><g class="relationship" transform="translate(-200.27970774968674 -3.6294728863144026) rotate(331.61498237645657)"><path class="outline" fill="#A5ABB6" stroke="none" d="M 25 0.5 L 76.10835460965578 0.5 L 76.10835460965578 -0.5 L 25 -0.5 Z M 86.55757335965578 0.5 L 137.66592796931155 0.5 L 137.66592796931155 3.5 L 144.66592796931155 0 L 137.66592796931155 -3.5 L 137.66592796931155 -0.5 L 86.55757335965578 -0.5 Z"/><text text-anchor="middle" pointer-events="none" font-size="8px" fill="#000000" x="81.33296398465578" y="3" font-family="sans-serif">2</text></g><g class="relationship" transform="translate(-200.27970774968674 -3.6294728863144026) rotate(346.5755797980373)"><path class="outline" fill="#A5ABB6" stroke="none" d="M 25 0.5 L 27.954226853614237 0.5 L 27.954226853614237 -0.5 L 25 -0.5 Z M 27.954226853614237 0.5 L 30.908453707228475 0.5 L 30.908453707228475 3.5 L 37.908453707228475 0 L 30.908453707228475 -3.5 L 30.908453707228475 -0.5 L 27.954226853614237 -0.5 Z"/><text text-anchor="middle" pointer-events="none" font-size="8px" fill="#000000" x="27.954226853614237" y="3" font-family="sans-serif"/></g><g class="relationship" transform="translate(-200.27970774968674 -3.6294728863144026) rotate(437.3587167760438)"><path class="outline" fill="#A5ABB6" stroke="none" d="M 25 0.5 L 29.90034496531969 0.5 L 29.90034496531969 -0.5 L 25 -0.5 Z M 40.34956371531969 0.5 L 45.24990868063938 0.5 L 45.24990868063938 3.5 L 52.24990868063938 0 L 45.24990868063938 -3.5 L 45.24990868063938 -0.5 L 40.34956371531969 -0.5 Z"/><text text-anchor="middle" pointer-events="none" font-size="8px" fill="#000000" x="35.12495434031969" y="3" font-family="sans-serif">5</text></g><g class="relationship" transform="translate(-200.27970774968674 -3.6294728863144026) rotate(389.01244981371144)"><path class="outline" fill="#A5ABB6" stroke="none" d="M 25 0.5 L 62.88795052771644 0.5 L 62.88795052771644 -0.5 L 25 -0.5 Z M 73.33716927771644 0.5 L 111.22511980543288 0.5 L 111.22511980543288 3.5 L 118.22511980543288 0 L 111.22511980543288 -3.5 L 111.22511980543288 -0.5 L 73.33716927771644 -0.5 Z"/><text text-anchor="middle" pointer-events="none" font-size="8px" fill="#000000" x="68.11255990271644" y="3" font-family="sans-serif">1</text></g><g class="relationship" transform="translate(-200.27970774968674 -3.6294728863144026) rotate(465.2573752710793)"><path class="outline" fill="#A5ABB6" stroke="none" d="M 25 0.5 L 50.49874040970462 0.5 L 50.49874040970462 -0.5 L 25 -0.5 Z M 60.94795915970462 0.5 L 86.44669956940923 0.5 L 86.44669956940923 3.5 L 93.44669956940923 0 L 86.44669956940923 -3.5 L 86.44669956940923 -0.5 L 60.94795915970462 -0.5 Z"/><text text-anchor="middle" pointer-events="none" font-size="8px" fill="#000000" x="55.72334978470462" y="3" transform="rotate(180 55.72334978470462 0)" font-family="sans-serif">5</text></g><g class="relationship" transform="translate(-200.27970774968674 -3.6294728863144026) rotate(222.95358193124406)"><path class="outline" fill="#A5ABB6" stroke="none" d="M 24.018736134675446,-6.953439040707552 L 24.277555179777966,-5.987513214418485 A 78.91762299231347 78.91762299231347 0 0 1 35.895465252005586,-8.18355410832838 L 35.78386186839555,-9.177306937137828 A 79.91762299231347 79.91762299231347 0 0 0 24.018736134675446,-6.953439040707552 Z M 50.751687840277945,-9.447330516246595 L 50.6760005436669,-8.450198913532233 A 78.91762299231347 78.91762299231347 0 0 1 62.36555950000312,-6.674630987365449 L 61.69412694187928,-3.750733191632622 L 69.29989311640036,-5.595271317698634 L 63.260802910834904,-10.573161381675884 L 62.589370352711065,-7.649263585943057 A 79.91762299231347 79.91762299231347 0 0 0 50.751687840277945,-9.447330516246595"/><text text-anchor="middle" pointer-events="none" font-size="8px" fill="#000000" x="43.27045695219392" y="-6.163645880793808" transform="rotate(180 43.27045695219392 -9.163645880793808)" font-family="sans-serif">26</text></g><g class="relationship" transform="translate(-200.27970774968674 -3.6294728863144026) rotate(516.3188587324744)"><path class="outline" fill="#A5ABB6" stroke="none" d="M 25 0.5 L 55.650881066190976 0.5 L 55.650881066190976 -0.5 L 25 -0.5 Z M 66.10009981619098 0.5 L 96.75098088238195 0.5 L 96.75098088238195 3.5 L 103.75098088238195 0 L 96.75098088238195 -3.5 L 96.75098088238195 -0.5 L 66.10009981619098 -0.5 Z"/><text text-anchor="middle" pointer-events="none" font-size="8px" fill="#000000" x="60.875490441190976" y="3" transform="rotate(180 60.875490441190976 0)" font-family="sans-serif">4</text></g><g class="relationship" transform="translate(-200.27970774968674 -3.6294728863144026) rotate(533.6552675595626)"><path class="outline" fill="#A5ABB6" stroke="none" d="M 25 0.5 L 26.29623317802524 0.5 L 26.29623317802524 -0.5 L 25 -0.5 Z M 36.74545192802524 0.5 L 38.04168510605048 0.5 L 38.04168510605048 3.5 L 45.04168510605048 0 L 38.04168510605048 -3.5 L 38.04168510605048 -0.5 L 36.74545192802524 -0.5 Z"/><text text-anchor="middle" pointer-events="none" font-size="8px" fill="#000000" x="31.52084255302524" y="3" transform="rotate(180 31.52084255302524 0)" font-family="sans-serif">2</text></g><g class="relationship" transform="translate(-28.601941796652362 277.1637094241717) rotate(285.6543356336149)"><path class="outline" fill="#A5ABB6" stroke="none" d="M 24.018736134675446,6.953439040707552 L 24.277555179777966,5.987513214418485 A 124.82314478819617 124.82314478819617 0 0 0 47.33992644206463,9.897980179229918 L 47.26586777374495,10.895234065482924 A 125.82314478819617 125.82314478819617 0 0 1 24.018736134675446,6.953439040707552 Z M 62.21332674507919,11.11477490038068 L 62.16858804113087,10.115776177474075 A 124.82314478819617 124.82314478819617 0 0 0 85.33585650334443,6.884307142785978 L 84.64483816139563,3.964976114777966 L 92.26279862568794,5.758486182906756 L 86.25721429260952,10.776748513463328 L 85.56619595066071,7.857417485455315 A 125.82314478819617 125.82314478819617 0 0 1 62.21332674507919,11.11477490038068"/><text text-anchor="middle" pointer-events="none" font-size="8px" fill="#000000" x="54.743676875971595" y="13.72724339502038" font-family="sans-serif">17</text></g><g class="relationship" transform="translate(-28.601941796652362 277.1637094241717) rotate(320.9733212077909)"><path class="outline" fill="#A5ABB6" stroke="none" d="M 25 0.5 L 30.513698543629232 0.5 L 30.513698543629232 -0.5 L 25 -0.5 Z M 30.513698543629232 0.5 L 36.027397087258464 0.5 L 36.027397087258464 3.5 L 43.027397087258464 0 L 36.027397087258464 -3.5 L 36.027397087258464 -0.5 L 30.513698543629232 -0.5 Z"/><text text-anchor="middle" pointer-events="none" font-size="8px" fill="#000000" x="30.513698543629232" y="3" font-family="sans-serif"/></g><g class="relationship" transform="translate(-28.601941796652362 277.1637094241717) rotate(202.46019043740517)"><path class="outline" fill="#A5ABB6" stroke="none" d="M 24.018736134675446,-6.953439040707552 L 24.277555179777966,-5.987513214418485 A 221.45019631114948 221.45019631114948 0 0 1 71.83611586117567,-13.318198078566468 L 71.79205643911081,-14.317226990724322 A 222.45019631114948 222.45019631114948 0 0 0 24.018736134675446,-6.953439040707552 Z M 86.72042860863884,-14.47414668988364 L 86.69737920177444,-13.474412362753071 A 221.45019631114948 221.45019631114948 0 0 1 134.39952745745128,-7.145061175067186 L 133.68415517767522,-4.231602319801168 L 141.3168268330347,-5.9614356648006686 L 135.3533571638194,-11.029672982088542 L 134.63798488404333,-8.116214126822525 A 222.45019631114948 222.45019631114948 0 0 0 86.72042860863884,-14.47414668988364"/><text text-anchor="middle" pointer-events="none" font-size="8px" fill="#000000" x="79.2601812067333" y="-11.020984850153098" transform="rotate(180 79.2601812067333 -14.020984850153098)" font-family="sans-serif">14</text></g><g class="relationship" transform="translate(-28.601941796652362 277.1637094241717) rotate(247.48372309478987)"><path class="outline" fill="#A5ABB6" stroke="none" d="M 24.018736134675446,-6.953439040707552 L 24.277555179777966,-5.987513214418485 A 79.7662480460293 79.7662480460293 0 0 1 36.104967815354534,-8.216620939592417 L 35.99442467547889,-9.210492266388016 A 80.7662480460293 80.7662480460293 0 0 0 24.018736134675446,-6.953439040707552 Z M 50.96174270795796,-9.479381473162306 L 50.88696935245859,-8.482180918956999 A 79.7662480460293 79.7662480460293 0 0 1 62.78681638615649,-6.6793355353431405 L 62.11494435406395,-3.755538693479492 L 69.7209876891871,-5.598933600771158 L 63.682645762279876,-10.577731324494671 L 63.01077373018734,-7.653934482631023 A 80.7662480460293 80.7662480460293 0 0 0 50.96174270795796,-9.479381473162306"/><text text-anchor="middle" pointer-events="none" font-size="8px" fill="#000000" x="43.48082164807863" y="-6.192532598537099" transform="rotate(180 43.48082164807863 -9.192532598537099)" font-family="sans-serif">17</text></g><g class="relationship" transform="translate(-28.601941796652362 277.1637094241717) rotate(341.43168309108387)"><path class="outline" fill="#A5ABB6" stroke="none" d="M 24.018736134675446,-6.953439040707552 L 24.277555179777966,-5.987513214418485 A 128.88054347379074 128.88054347379074 0 0 1 48.35989960892675,-10.044879960493915 L 48.28793843841138,-11.042287394764429 A 129.88054347379074 129.88054347379074 0 0 0 24.018736134675446,-6.953439040707552 Z M 63.23413017357404,-11.25823584648603 L 63.19101489510474,-10.259165742458038 A 128.88054347379074 128.88054347379074 0 0 1 87.38052714007209,-6.899249751411965 L 86.68811309608189,-3.9802494445114758 L 94.30693019683827,-5.770117033251601 L 88.30374586539234,-10.791250160612618 L 87.61133182140215,-7.872249853712129 A 129.88054347379074 129.88054347379074 0 0 0 63.23413017357404,-11.25823584648603"/><text text-anchor="middle" pointer-events="none" font-size="8px" fill="#000000" x="55.765148525657594" y="-7.865508868467259" font-family="sans-serif">38</text></g><g class="relationship" transform="translate(126.44471984569437 5.718093333408178) rotate(504.3538442576136)"><path class="outline" fill="#A5ABB6" stroke="none" d="M 25 0.5 L 80.2883229462916 0.5 L 80.2883229462916 -0.5 L 25 -0.5 Z M 90.7375416962916 0.5 L 146.0258646425832 0.5 L 146.0258646425832 3.5 L 153.0258646425832 0 L 146.0258646425832 -3.5 L 146.0258646425832 -0.5 L 90.7375416962916 -0.5 Z"/><text text-anchor="middle" pointer-events="none" font-size="8px" fill="#000000" x="85.5129323212916" y="3" transform="rotate(180 85.5129323212916 0)" font-family="sans-serif">3</text></g><g class="relationship" transform="translate(126.44471984569437 5.718093333408178) rotate(528.3574982879638)"><path class="outline" fill="#A5ABB6" stroke="none" d="M 25 0.5 L 53.63999972422432 0.5 L 53.63999972422432 -0.5 L 25 -0.5 Z M 64.08921847422431 0.5 L 92.72921819844863 0.5 L 92.72921819844863 3.5 L 99.72921819844863 0 L 92.72921819844863 -3.5 L 92.72921819844863 -0.5 L 64.08921847422431 -0.5 Z"/><text text-anchor="middle" pointer-events="none" font-size="8px" fill="#000000" x="58.86460909922432" y="3" transform="rotate(180 58.86460909922432 0)" font-family="sans-serif">1</text></g><g class="relationship" transform="translate(126.44471984569437 5.718093333408178) rotate(438.0307834130146)"><path class="outline" fill="#A5ABB6" stroke="none" d="M 25 0.5 L 59.501449198445115 0.5 L 59.501449198445115 -0.5 L 25 -0.5 Z M 69.95066794844512 0.5 L 104.45211714689023 0.5 L 104.45211714689023 3.5 L 111.45211714689023 0 L 104.45211714689023 -3.5 L 104.45211714689023 -0.5 L 69.95066794844512 -0.5 Z"/><text text-anchor="middle" pointer-events="none" font-size="8px" fill="#000000" x="64.72605857344512" y="3" font-family="sans-serif">2</text></g><g class="relationship" transform="translate(2.85804979877762 164.89783324064587) rotate(465.6543356336149)"><path class="outline" fill="#A5ABB6" stroke="none" d="M 24.018736134675446,6.953439040707552 L 24.277555179777966,5.987513214418485 A 124.82314478819617 124.82314478819617 0 0 0 47.33992644206463,9.897980179229918 L 47.26586777374495,10.895234065482924 A 125.82314478819617 125.82314478819617 0 0 1 24.018736134675446,6.953439040707552 Z M 62.21332674507919,11.11477490038068 L 62.16858804113087,10.115776177474075 A 124.82314478819617 124.82314478819617 0 0 0 85.33585650334443,6.884307142785978 L 84.64483816139563,3.964976114777966 L 92.26279862568794,5.758486182906756 L 86.25721429260952,10.776748513463328 L 85.56619595066071,7.857417485455315 A 125.82314478819617 125.82314478819617 0 0 1 62.21332674507919,11.11477490038068"/><text text-anchor="middle" pointer-events="none" font-size="8px" fill="#000000" x="54.743676875971595" y="13.72724339502038" transform="rotate(180 54.743676875971595 10.72724339502038)" font-family="sans-serif">25</text></g><g class="relationship" transform="translate(2.85804979877762 164.89783324064587) rotate(402.60352015387446)"><path class="outline" fill="#A5ABB6" stroke="none" d="M 24.018736134675446,-6.953439040707552 L 24.277555179777966,-5.987513214418485 A 111.77749943296222 111.77749943296222 0 0 1 44.06822303819031,-9.421968234958854 L 43.98645812257547,-10.418619878500621 A 112.77749943296222 112.77749943296222 0 0 0 24.018736134675446,-6.953439040707552 Z M 58.93846716488333,-10.650541154737255 L 58.88765236275762,-9.651833061306093 A 111.77749943296222 111.77749943296222 0 0 1 78.77531788048061,-6.832830431778704 L 78.08910776225775,-3.912365456188587 L 85.70410450989469,-5.718417651857076 L 79.69026470477775,-10.726783732565528 L 79.00405458655489,-7.8063187569754104 A 112.77749943296222 112.77749943296222 0 0 0 58.93846716488333,-10.650541154737255"/><text text-anchor="middle" pointer-events="none" font-size="8px" fill="#000000" x="51.46636903038488" y="-7.28273502170218" font-family="sans-serif">49</text></g><g class="relationship" transform="translate(2.85804979877762 164.89783324064587) rotate(206.57342843518524)"><path class="outline" fill="#A5ABB6" stroke="none" d="M 25 0.5 L 95.38979793298763 0.5 L 95.38979793298763 -0.5 L 25 -0.5 Z M 105.83901668298763 0.5 L 176.22881461597527 0.5 L 176.22881461597527 3.5 L 183.22881461597527 0 L 176.22881461597527 -3.5 L 176.22881461597527 -0.5 L 105.83901668298763 -0.5 Z"/><text text-anchor="middle" pointer-events="none" font-size="8px" fill="#000000" x="100.61440730798763" y="3" transform="rotate(180 100.61440730798763 0)" font-family="sans-serif">9</text></g><g class="relationship" transform="translate(2.85804979877762 164.89783324064587) rotate(299.5655815312824)"><path class="outline" fill="#A5ABB6" stroke="none" d="M 25 0.5 L 25.822544250786812 0.5 L 25.822544250786812 -0.5 L 25 -0.5 Z M 40.72098175078681 0.5 L 41.543526001573625 0.5 L 41.543526001573625 3.5 L 48.543526001573625 0 L 41.543526001573625 -3.5 L 41.543526001573625 -0.5 L 40.72098175078681 -0.5 Z"/><text text-anchor="middle" pointer-events="none" font-size="8px" fill="#000000" x="33.27176300078681" y="3" font-family="sans-serif">18</text></g><g class="relationship" transform="translate(2.85804979877762 164.89783324064587) rotate(432.8790778380894)"><path class="outline" fill="#A5ABB6" stroke="none" d="M 25 0.5 L 25.37561312780342 0.5 L 25.37561312780342 -0.5 L 25 -0.5 Z M 40.27405062780342 0.5 L 40.64966375560684 0.5 L 40.64966375560684 3.5 L 47.64966375560684 0 L 40.64966375560684 -3.5 L 40.64966375560684 -0.5 L 40.27405062780342 -0.5 Z"/><text text-anchor="middle" pointer-events="none" font-size="8px" fill="#000000" x="32.82483187780342" y="3" font-family="sans-serif">20</text></g><g class="relationship" transform="translate(-18.22471566437694 109.4676133850049) rotate(351.53592916789194)"><path class="outline" fill="#A5ABB6" stroke="none" d="M 25 0.5 L 25.50115633815742 0.5 L 25.50115633815742 -0.5 L 25 -0.5 Z M 25.50115633815742 0.5 L 26.002312676314837 0.5 L 26.002312676314837 3.5 L 33.00231267631484 0 L 26.002312676314837 -3.5 L 26.002312676314837 -0.5 L 25.50115633815742 -0.5 Z"/><text text-anchor="middle" pointer-events="none" font-size="8px" fill="#000000" x="25.50115633815742" y="3" font-family="sans-serif"/></g><g class="relationship" transform="translate(-18.22471566437694 109.4676133850049) rotate(411.8428664692343)"><path class="outline" fill="#A5ABB6" stroke="none" d="M 25 0.5 L 71.66321966995825 0.5 L 71.66321966995825 -0.5 L 25 -0.5 Z M 86.56165716995825 0.5 L 133.2248768399165 0.5 L 133.2248768399165 3.5 L 140.2248768399165 0 L 133.2248768399165 -3.5 L 133.2248768399165 -0.5 L 86.56165716995825 -0.5 Z"/><text text-anchor="middle" pointer-events="none" font-size="8px" fill="#000000" x="79.11243841995825" y="3" font-family="sans-serif">21</text></g><g class="relationship" transform="translate(-18.22471566437694 109.4676133850049) rotate(192.8655697000981)"><path class="outline" fill="#A5ABB6" stroke="none" d="M 25 0.5 L 73.75174968571227 0.5 L 73.75174968571227 -0.5 L 25 -0.5 Z M 88.65018718571227 0.5 L 137.40193687142454 0.5 L 137.40193687142454 3.5 L 144.40193687142454 0 L 137.40193687142454 -3.5 L 137.40193687142454 -0.5 L 88.65018718571227 -0.5 Z"/><text text-anchor="middle" pointer-events="none" font-size="8px" fill="#000000" x="81.20096843571227" y="3" transform="rotate(180 81.20096843571227 0)" font-family="sans-serif">25</text></g><g class="relationship" transform="translate(76.73963708113604 -83.74145236142888) rotate(180.24497145249666)"><path class="outline" fill="#A5ABB6" stroke="none" d="M 25 0.5 L 52.92729352789745 0.5 L 52.92729352789745 -0.5 L 25 -0.5 Z M 67.82573102789745 0.5 L 95.7530245557949 0.5 L 95.7530245557949 3.5 L 102.7530245557949 0 L 95.7530245557949 -3.5 L 95.7530245557949 -0.5 L 67.82573102789745 -0.5 Z"/><text text-anchor="middle" pointer-events="none" font-size="8px" fill="#000000" x="60.37651227789745" y="3" transform="rotate(180 60.37651227789745 0)" font-family="sans-serif">24</text></g><g class="relationship" transform="translate(141.328288731038 -82.85277259951631) rotate(180.42742854245245)"><path class="outline" fill="#A5ABB6" stroke="none" d="M 25 0.5 L 85.22371161134691 0.5 L 85.22371161134691 -0.5 L 25 -0.5 Z M 100.12214911134691 0.5 L 160.34586072269383 0.5 L 160.34586072269383 3.5 L 167.34586072269383 0 L 160.34586072269383 -3.5 L 160.34586072269383 -0.5 L 100.12214911134691 -0.5 Z"/><text text-anchor="middle" pointer-events="none" font-size="8px" fill="#000000" x="92.67293036134691" y="3" transform="rotate(180 92.67293036134691 0)" font-family="sans-serif">23</text></g><g class="relationship" transform="translate(141.328288731038 -82.85277259951631) rotate(180.78828688409487)"><path class="outline" fill="#A5ABB6" stroke="none" d="M 25 0.5 L 28.797382531993264 0.5 L 28.797382531993264 -0.5 L 25 -0.5 Z M 28.797382531993264 0.5 L 32.59476506398653 0.5 L 32.59476506398653 3.5 L 39.59476506398653 0 L 32.59476506398653 -3.5 L 32.59476506398653 -0.5 L 28.797382531993264 -0.5 Z"/><text text-anchor="middle" pointer-events="none" font-size="8px" fill="#000000" x="28.797382531993264" y="3" transform="rotate(180 28.797382531993264 0)" font-family="sans-serif"/></g><g class="relationship" transform="translate(99.74174273467005 160.9059596655847) rotate(495.79802591562714)"><path class="outline" fill="#A5ABB6" stroke="none" d="M 25 0.5 L 43.931144647331905 0.5 L 43.931144647331905 -0.5 L 25 -0.5 Z M 54.380363397331905 0.5 L 73.31150804466381 0.5 L 73.31150804466381 3.5 L 80.31150804466381 0 L 73.31150804466381 -3.5 L 73.31150804466381 -0.5 L 54.380363397331905 -0.5 Z"/><text text-anchor="middle" pointer-events="none" font-size="8px" fill="#000000" x="49.155754022331905" y="3" transform="rotate(180 49.155754022331905 0)" font-family="sans-serif">9</text></g><g class="relationship" transform="translate(99.74174273467005 160.9059596655847) rotate(461.44390921126956)"><path class="outline" fill="#A5ABB6" stroke="none" d="M 25 0.5 L 31.311925661636785 0.5 L 31.311925661636785 -0.5 L 25 -0.5 Z M 41.761144411636785 0.5 L 48.07307007327357 0.5 L 48.07307007327357 3.5 L 55.07307007327357 0 L 48.07307007327357 -3.5 L 48.07307007327357 -0.5 L 41.761144411636785 -0.5 Z"/><text text-anchor="middle" pointer-events="none" font-size="8px" fill="#000000" x="36.536535036636785" y="3" transform="rotate(180 36.536535036636785 0)" font-family="sans-serif">8</text></g><g class="relationship" transform="translate(99.74174273467005 160.9059596655847) rotate(224.70526998849334)"><path class="outline" fill="#A5ABB6" stroke="none" d="M 25 0.5 L 31.679824056346796 0.5 L 31.679824056346796 -0.5 L 25 -0.5 Z M 46.578261556346796 0.5 L 53.25808561269359 0.5 L 53.25808561269359 3.5 L 60.25808561269359 0 L 53.25808561269359 -3.5 L 53.25808561269359 -0.5 L 46.578261556346796 -0.5 Z"/><text text-anchor="middle" pointer-events="none" font-size="8px" fill="#000000" x="39.129042806346796" y="3" transform="rotate(180 39.129042806346796 0)" font-family="sans-serif">17</text></g><g class="relationship" transform="translate(99.74174273467005 160.9059596655847) rotate(203.55923015606373)"><path class="outline" fill="#A5ABB6" stroke="none" d="M 25 0.5 L 55.6220859078483 0.5 L 55.6220859078483 -0.5 L 25 -0.5 Z M 66.0713046578483 0.5 L 96.6933905656966 0.5 L 96.6933905656966 3.5 L 103.6933905656966 0 L 96.6933905656966 -3.5 L 96.6933905656966 -0.5 L 66.0713046578483 -0.5 Z"/><text text-anchor="middle" pointer-events="none" font-size="8px" fill="#000000" x="60.8466952828483" y="3" transform="rotate(180 60.8466952828483 0)" font-family="sans-serif">4</text></g><g class="relationship" transform="translate(270.23758225705086 110.32663023853831) rotate(197.70297368689194)"><path class="outline" fill="#A5ABB6" stroke="none" d="M 24.018736134675446,-6.953439040707552 L 24.277555179777966,-5.987513214418485 A 186.11382431142061 186.11382431142061 0 0 1 65.0543551810863,-12.182293852988664 L 65.01463216580409,-13.181504582543198 A 187.11382431142061 187.11382431142061 0 0 0 24.018736134675446,-6.953439040707552 Z M 75.4897576538265,-13.304452219461979 L 75.47349803112581,-12.304584415865094 A 186.11382431142061 186.11382431142061 0 0 1 116.38446232673483,-7.068581559667766 L 115.67623275237321,-4.153378158530966 L 123.30464185844762,-5.901913119680129 L 117.32876842588365,-10.955519427850167 L 116.62053885152203,-8.040316026713366 A 187.11382431142061 187.11382431142061 0 0 0 75.4897576538265,-13.304452219461979"/><text text-anchor="middle" pointer-events="none" font-size="8px" fill="#000000" x="70.25720246309665" y="-9.816335398137937" transform="rotate(180 70.25720246309665 -12.816335398137937)" font-family="sans-serif">3</text></g><g class="relationship" transform="translate(4.281702841156348 30.8890120441975) rotate(465.98272826344726)"><path class="outline" fill="#A5ABB6" stroke="none" d="M 25 0.5 L 32.14449711946519 0.5 L 32.14449711946519 -0.5 L 25 -0.5 Z M 42.59371586946519 0.5 L 49.738212988930385 0.5 L 49.738212988930385 3.5 L 56.738212988930385 0 L 49.738212988930385 -3.5 L 49.738212988930385 -0.5 L 42.59371586946519 -0.5 Z"/><text text-anchor="middle" pointer-events="none" font-size="8px" fill="#000000" x="37.36910649446519" y="3" transform="rotate(180 37.36910649446519 0)" font-family="sans-serif">1</text></g><g class="relationship" transform="translate(4.281702841156348 30.8890120441975) rotate(413.7134273768079)"><path class="outline" fill="#A5ABB6" stroke="none" d="M 25 0.5 L 71.92436130233378 0.5 L 71.92436130233378 -0.5 L 25 -0.5 Z M 82.37358005233378 0.5 L 129.29794135466756 0.5 L 129.29794135466756 3.5 L 136.29794135466756 0 L 129.29794135466756 -3.5 L 129.29794135466756 -0.5 L 82.37358005233378 -0.5 Z"/><text text-anchor="middle" pointer-events="none" font-size="8px" fill="#000000" x="77.14897067733378" y="3" font-family="sans-serif">1</text></g><g class="relationship" transform="translate(4.281702841156348 30.8890120441975) rotate(375.41242883229694)"><path class="outline" fill="#A5ABB6" stroke="none" d="M 24.018736134675446,-6.953439040707552 L 24.277555179777966,-5.987513214418485 A 151.45602178124142 151.45602178124142 0 0 1 56.26662652868617,-10.976510066468421 L 56.219017780623616,-11.975376127113151 A 152.45602178124142 152.45602178124142 0 0 0 24.018736134675446,-6.953439040707552 Z M 66.69963421519277,-12.114193441616777 L 66.67849778473028,-11.11441684091676 A 151.45602178124142 151.45602178124142 0 0 1 98.78848398539115,-6.974421484799561 L 98.08904875413634,-4.05709559328872 L 105.71215027079225,-5.828626927123462 L 99.7210642937309,-10.864189340147348 L 99.0216290624761,-7.946863448636507 A 152.45602178124142 152.45602178124142 0 0 0 66.69963421519277,-12.114193441616777"/><text text-anchor="middle" pointer-events="none" font-size="8px" fill="#000000" x="61.464754656105946" y="-8.63492464171344" font-family="sans-serif">1</text></g><g class="relationship" transform="translate(4.281702841156348 30.8890120441975) rotate(527.7165250364062)"><path class="outline" fill="#A5ABB6" stroke="none" d="M 25 0.5 L 87.30149319301565 0.5 L 87.30149319301565 -0.5 L 25 -0.5 Z M 97.75071194301565 0.5 L 160.0522051360313 0.5 L 160.0522051360313 3.5 L 167.0522051360313 0 L 160.0522051360313 -3.5 L 160.0522051360313 -0.5 L 97.75071194301565 -0.5 Z"/><text text-anchor="middle" pointer-events="none" font-size="8px" fill="#000000" x="92.52610256801565" y="3" transform="rotate(180 92.52610256801565 0)" font-family="sans-serif">2</text></g><g class="relationship" transform="translate(154.74299629695935 139.20362747009446) rotate(189.75473783040843)"><path class="outline" fill="#A5ABB6" stroke="none" d="M 25 0.5 L 79.02796881334788 0.5 L 79.02796881334788 -0.5 L 25 -0.5 Z M 89.47718756334788 0.5 L 143.50515637669577 0.5 L 143.50515637669577 3.5 L 150.50515637669577 0 L 143.50515637669577 -3.5 L 143.50515637669577 -0.5 L 89.47718756334788 -0.5 Z"/><text text-anchor="middle" pointer-events="none" font-size="8px" fill="#000000" x="84.25257818834788" y="3" transform="rotate(180 84.25257818834788 0)" font-family="sans-serif">2</text></g><g class="relationship" transform="translate(154.74299629695935 139.20362747009446) rotate(530.3982433351404)"><path class="outline" fill="#A5ABB6" stroke="none" d="M 25 0.5 L 68.29686357724717 0.5 L 68.29686357724717 -0.5 L 25 -0.5 Z M 78.74608232724717 0.5 L 122.04294590449433 0.5 L 122.04294590449433 3.5 L 129.04294590449433 0 L 122.04294590449433 -3.5 L 122.04294590449433 -0.5 L 78.74608232724717 -0.5 Z"/><text text-anchor="middle" pointer-events="none" font-size="8px" fill="#000000" x="73.52147295224717" y="3" transform="rotate(180 73.52147295224717 0)" font-family="sans-serif">2</text></g><g class="relationship" transform="translate(39.14585656166375 100.93030009230904) rotate(187.47144323082784)"><path class="outline" fill="#A5ABB6" stroke="none" d="M 25 0.5 L 101.26334050673525 0.5 L 101.26334050673525 -0.5 L 25 -0.5 Z M 116.16177800673525 0.5 L 192.4251185134705 0.5 L 192.4251185134705 3.5 L 199.4251185134705 0 L 192.4251185134705 -3.5 L 192.4251185134705 -0.5 L 116.16177800673525 -0.5 Z"/><text text-anchor="middle" pointer-events="none" font-size="8px" fill="#000000" x="108.71255925673525" y="3" transform="rotate(180 108.71255925673525 0)" font-family="sans-serif">29</text></g><g class="relationship" transform="translate(39.14585656166375 100.93030009230904) rotate(432.10435849432537)"><path class="outline" fill="#A5ABB6" stroke="none" d="M 24.018736134675446,-6.953439040707552 L 24.277555179777966,-5.987513214418485 A 181.9781321723848 181.9781321723848 0 0 1 61.78732031280299,-11.935420972298346 L 61.734623644522614,-12.934031537610053 A 182.9781321723848 182.9781321723848 0 0 0 24.018736134675446,-6.953439040707552 Z M 76.66867747989917,-13.111733652711365 L 76.63975754373577,-12.112151921539635 A 181.9781321723848 181.9781321723848 0 0 1 114.28043194434922,-7.058468344390103 L 113.57314690101995,-4.143035637658095 L 121.20098910061212,-5.894042027743832 L 115.22347866878823,-10.945711953366114 L 114.51619362545897,-8.030279246634105 A 182.9781321723848 182.9781321723848 0 0 0 76.66867747989917,-13.111733652711365"/><text text-anchor="middle" pointer-events="none" font-size="8px" fill="#000000" x="69.2057858872977" y="-9.675350617626975" font-family="sans-serif">74</text></g><g class="relationship" transform="translate(39.14585656166375 100.93030009230904) rotate(456.37351496600513)"><path class="outline" fill="#A5ABB6" stroke="none" d="M 24.018736134675446,-6.953439040707552 L 24.277555179777966,-5.987513214418485 A 159.7635614081352 159.7635614081352 0 0 1 56.154110781089535,-11.150214227182943 L 56.09481505231995,-12.14845468746779 A 160.7635614081352 160.7635614081352 0 0 0 24.018736134675446,-6.953439040707552 Z M 71.03311948791475,-12.340414698354778 L 70.99949425683032,-11.340980186325822 A 159.7635614081352 159.7635614081352 0 0 1 102.99818566072078,-6.999088065453503 L 102.29644658306634,-4.082315488290057 L 109.92094485371123,-5.847825647120373 L 103.93383776426003,-10.888118168338098 L 103.2320986866056,-7.971345591174652 A 160.7635614081352 160.7635614081352 0 0 0 71.03311948791475,-12.340414698354778"/><text text-anchor="middle" pointer-events="none" font-size="8px" fill="#000000" x="63.56816080593765" y="-8.918094251192144" transform="rotate(180 63.56816080593765 -11.918094251192144)" font-family="sans-serif">95</text></g><g class="relationship" transform="translate(-171.92257930112126 -84.69480433196892) rotate(497.80896790077617)"><path class="outline" fill="#A5ABB6" stroke="none" d="M 25 0.5 L 57.38992764648711 0.5 L 57.38992764648711 -0.5 L 25 -0.5 Z M 67.83914639648711 0.5 L 100.22907404297422 0.5 L 100.22907404297422 3.5 L 107.22907404297422 0 L 100.22907404297422 -3.5 L 100.22907404297422 -0.5 L 67.83914639648711 -0.5 Z"/><text text-anchor="middle" pointer-events="none" font-size="8px" fill="#000000" x="62.61453702148711" y="3" transform="rotate(180 62.61453702148711 0)" font-family="sans-serif">3</text></g><g class="relationship" transform="translate(-171.92257930112126 -84.69480433196892) rotate(454.1864621330814)"><path class="outline" fill="#A5ABB6" stroke="none" d="M 25 0.5 L 67.48137866913093 0.5 L 67.48137866913093 -0.5 L 25 -0.5 Z M 82.37981616913093 0.5 L 124.86119483826187 0.5 L 124.86119483826187 3.5 L 131.86119483826187 0 L 124.86119483826187 -3.5 L 124.86119483826187 -0.5 L 82.37981616913093 -0.5 Z"/><text text-anchor="middle" pointer-events="none" font-size="8px" fill="#000000" x="74.93059741913093" y="3" transform="rotate(180 74.93059741913093 0)" font-family="sans-serif">14</text></g><g class="relationship" transform="translate(-171.92257930112126 -84.69480433196892) rotate(360.19292976710216)"><path class="outline" fill="#A5ABB6" stroke="none" d="M 25 0.5 L 51.73091311669446 0.5 L 51.73091311669446 -0.5 L 25 -0.5 Z M 62.18013186669446 0.5 L 88.91104498338892 0.5 L 88.91104498338892 3.5 L 95.91104498338892 0 L 88.91104498338892 -3.5 L 88.91104498338892 -0.5 L 62.18013186669446 -0.5 Z"/><text text-anchor="middle" pointer-events="none" font-size="8px" fill="#000000" x="56.95552249169446" y="3" font-family="sans-serif">7</text></g><g class="relationship" transform="translate(-171.92257930112126 -84.69480433196892) rotate(469.2801364227708)"><path class="outline" fill="#A5ABB6" stroke="none" d="M 24.018736134675446,-6.953439040707552 L 24.277555179777966,-5.987513214418485 A 63.134767218098396 63.134767218098396 0 0 1 34.211021258085324,-7.812840036324111 L 34.109539707298616,-8.807677457639748 A 64.1347672180984 64.1347672180984 0 0 0 24.018736134675446,-6.953439040707552 Z M 44.6270227801935,-9.013357103789673 L 44.56451397864715,-8.015312691085875 A 63.134767218098396 63.134767218098396 0 0 1 54.561749929992914,-6.579750198969675 L 53.89918086382902,-3.6538311582984018 L 61.499322535919866,-5.521408884699131 L 55.445175351544776,-10.480975586531372 L 54.78260628538088,-7.555056545860099 A 64.1347672180984 64.1347672180984 0 0 0 44.6270227801935,-9.013357103789673"/><text text-anchor="middle" pointer-events="none" font-size="8px" fill="#000000" x="39.37383325711194" y="-5.626613609694097" transform="rotate(180 39.37383325711194 -8.626613609694097)" font-family="sans-serif">7</text></g><g class="relationship" transform="translate(-288.90976282238853 128.27233181264404) rotate(342.9429268701606)"><path class="outline" fill="#A5ABB6" stroke="none" d="M 24.018736134675446,6.953439040707552 L 24.277555179777966,5.987513214418485 A 9.486063240854374 9.486063240854374 0 0 0 26.475796393336072,6.307262797651122 L 26.44871111995149,7.306895924335949 A 10.486063240854374 10.486063240854374 0 0 1 24.018736134675446,6.953439040707552 Z M 26.44871111995149,7.306895924335949 L 26.475796393336072,6.307262797651122 A 9.486063240854374 9.486063240854374 0 0 0 28.688126949613626,6.107018599923752 L 28.06972565170719,3.1714471334546346 L 35.640860587692636,5.153344149220263 L 29.512662013488868,10.021113888549241 L 28.894260715582433,7.085542422080124 A 10.486063240854374 10.486063240854374 0 0 1 26.44871111995149,7.306895924335949"/><text text-anchor="middle" pointer-events="none" font-size="8px" fill="#000000" x="26.462253756643783" y="9.807079360993535" font-family="sans-serif"/></g><g class="relationship" transform="translate(-288.90976282238853 128.27233181264404) rotate(331.8267306218268)"><path class="outline" fill="#A5ABB6" stroke="none" d="M 24.018736134675446,6.953439040707552 L 24.277555179777966,5.987513214418485 A 131.0413205071023 131.0413205071023 0 0 0 48.90351801775059,10.122920146728461 L 48.832624145736034,11.120404010713656 A 132.0413205071023 132.0413205071023 0 0 1 24.018736134675446,6.953439040707552 Z M 63.77816654891776,11.33448566830566 L 63.735872046673535,10.33538048111069 A 131.0413205071023 131.0413205071023 0 0 0 88.47017921520276,6.907015698032608 L 87.77703980370326,3.988187550260607 L 95.39630146192067,5.7761617624957875 L 89.39436509720208,10.79878656172861 L 88.70122568570258,7.879958413956609 A 132.0413205071023 132.0413205071023 0 0 1 63.77816654891776,11.33448566830566"/><text text-anchor="middle" pointer-events="none" font-size="8px" fill="#000000" x="56.3095249847665" y="13.939145168451802" font-family="sans-serif">85</text></g><g class="relationship" transform="translate(-288.90976282238853 128.27233181264404) rotate(278.7081164370781)"><path class="outline" fill="#A5ABB6" stroke="none" d="M 24.018736134675446,6.953439040707552 L 24.277555179777966,5.987513214418485 A 142.7209961903395 142.7209961903395 0 0 0 51.84672753874904,10.542715923812949 L 51.78107679470157,11.540558586664162 A 143.7209961903395 143.7209961903395 0 0 1 24.018736134675446,6.953439040707552 Z M 66.72338697701296,11.74507087375082 L 66.68507023837947,10.745805229619833 A 142.7209961903395 142.7209961903395 0 0 0 94.36858442865267,6.946834532277036 L 93.67172584055965,4.0288920879850005 L 101.29325989668293,5.8071549007752905 L 95.29772921277672,10.837424457999749 L 94.6008706246837,7.919482013707714 A 143.7209961903395 143.7209961903395 0 0 1 66.72338697701296,11.74507087375082"/><text text-anchor="middle" pointer-events="none" font-size="8px" fill="#000000" x="59.25641476492572" y="14.337200444697686" font-family="sans-serif">59</text></g><g class="relationship" transform="translate(-288.90976282238853 128.27233181264404) rotate(398.5973097458341)"><path class="outline" fill="#A5ABB6" stroke="none" d="M 24.018736134675446,-6.953439040707552 L 24.277555179777966,-5.987513214418485 A 165.7436382038169 165.7436382038169 0 0 1 57.66865239916457,-11.362234895359563 L 57.611295670089675,-12.360588643101238 A 166.7436382038169 166.7436382038169 0 0 0 24.018736134675446,-6.953439040707552 Z M 72.54836021662105,-12.548494560833433 L 72.51613592954783,-11.549013898027681 A 165.7436382038169 165.7436382038169 0 0 1 106.03187128304428,-7.0159696255222865 L 105.32855549332291,-4.099576836488442 L 112.95400708907681,-5.860964914344734 L 106.96962566933945,-10.90449334423408 L 106.26630987961808,-7.988100555200235 A 166.7436382038169 166.7436382038169 0 0 0 72.54836021662105,-12.548494560833433"/><text text-anchor="middle" pointer-events="none" font-size="8px" fill="#000000" x="65.0840120434295" y="-9.12193806488483" font-family="sans-serif">23</text></g><g class="relationship" transform="translate(-288.90976282238853 128.27233181264404) rotate(249.94143438208175)"><path class="outline" fill="#A5ABB6" stroke="none" d="M 24.018736134675446,6.953439040707552 L 24.277555179777966,5.987513214418485 A 62.08703023973949 62.08703023973949 0 0 0 31.763934304206973,7.506962754872504 L 31.625694051414563,8.497361478876066 A 63.08703023973949 63.08703023973949 0 0 1 24.018736134675446,6.953439040707552 Z M 46.604825675772354,8.79192845133798 L 46.50562993629448,7.796860511311053 A 62.08703023973949 62.08703023973949 0 0 0 54.04595838351592,6.572913531783456 L 53.38402799623824,3.6468499367126967 L 60.98376183656064,5.516086560647331 L 54.92853223321949,10.47433165854447 L 54.266601845941814,7.54826806347371 A 63.08703023973949 63.08703023973949 0 0 1 46.604825675772354,8.79192845133798"/><text text-anchor="middle" pointer-events="none" font-size="8px" fill="#000000" x="39.116315209300296" y="11.590979198983312" transform="rotate(180 39.116315209300296 8.590979198983312)" font-family="sans-serif">85</text></g><g class="relationship" transform="translate(-139.09010072261572 -18.234456272375795) rotate(530.3055897754809)"><path class="outline" fill="#A5ABB6" stroke="none" d="M 25 0.5 L 55.39938854997085 0.5 L 55.39938854997085 -0.5 L 25 -0.5 Z M 70.29782604997085 0.5 L 100.6972145999417 0.5 L 100.6972145999417 3.5 L 107.6972145999417 0 L 100.6972145999417 -3.5 L 100.6972145999417 -0.5 L 70.29782604997085 -0.5 Z"/><text text-anchor="middle" pointer-events="none" font-size="8px" fill="#000000" x="62.84860729997085" y="3" transform="rotate(180 62.84860729997085 0)" font-family="sans-serif">18</text></g><g class="relationship" transform="translate(-139.09010072261572 -18.234456272375795) rotate(323.13226763656826)"><path class="outline" fill="#A5ABB6" stroke="none" d="M 25 0.5 L 44.097896646442514 0.5 L 44.097896646442514 -0.5 L 25 -0.5 Z M 58.996334146442514 0.5 L 78.09423079288503 0.5 L 78.09423079288503 3.5 L 85.09423079288503 0 L 78.09423079288503 -3.5 L 78.09423079288503 -0.5 L 58.996334146442514 -0.5 Z"/><text text-anchor="middle" pointer-events="none" font-size="8px" fill="#000000" x="51.547115396442514" y="3" font-family="sans-serif">19</text></g><g class="relationship" transform="translate(-139.09010072261572 -18.234456272375795) rotate(476.2035696614471)"><path class="outline" fill="#A5ABB6" stroke="none" d="M 25 0.5 L 39.195234838623264 0.5 L 39.195234838623264 -0.5 L 25 -0.5 Z M 54.093672338623264 0.5 L 68.28890717724653 0.5 L 68.28890717724653 3.5 L 75.28890717724653 0 L 68.28890717724653 -3.5 L 68.28890717724653 -0.5 L 54.093672338623264 -0.5 Z"/><text text-anchor="middle" pointer-events="none" font-size="8px" fill="#000000" x="46.644453588623264" y="3" transform="rotate(180 46.644453588623264 0)" font-family="sans-serif">35</text></g><g class="relationship" transform="translate(-139.09010072261572 -18.234456272375795) rotate(485.62724818597053)"><path class="outline" fill="#A5ABB6" stroke="none" d="M 25 0.5 L 68.32801318136039 0.5 L 68.32801318136039 -0.5 L 25 -0.5 Z M 83.22645068136039 0.5 L 126.55446386272078 0.5 L 126.55446386272078 3.5 L 133.55446386272078 0 L 126.55446386272078 -3.5 L 126.55446386272078 -0.5 L 83.22645068136039 -0.5 Z"/><text text-anchor="middle" pointer-events="none" font-size="8px" fill="#000000" x="75.77723193136039" y="3" transform="rotate(180 75.77723193136039 0)" font-family="sans-serif">15</text></g><g class="relationship" transform="translate(-183.37384640589602 71.74784627131845) rotate(501.02623222379975)"><path class="outline" fill="#A5ABB6" stroke="none" d="M 24.018736134675446,6.953439040707552 L 24.277555179777966,5.987513214418485 A 13.197759569286585 13.197759569286585 0 0 0 27.344956461755338,6.432615761579074 L 27.318555749921725,7.432267202039537 A 14.197759569286585 14.197759569286585 0 0 1 24.018736134675446,6.953439040707552 Z M 27.318555749921725,7.432267202039537 L 27.344956461755338,6.432615761579074 A 13.197759569286585 13.197759569286585 0 0 0 30.431575657464105,6.150040386064137 L 29.80915434403687,3.2153186431059537 L 37.382996609937734,5.186844278560287 L 31.26147074203375,10.06300271000838 L 30.639049428606516,7.128280967050197 A 14.197759569286585 14.197759569286585 0 0 1 27.318555749921725,7.432267202039537"/><text text-anchor="middle" pointer-events="none" font-size="8px" fill="#000000" x="27.33175610583853" y="9.932441481809306" transform="rotate(180 27.33175610583853 6.932441481809306)" font-family="sans-serif"/></g><g class="relationship" transform="translate(-183.37384640589602 71.74784627131845) rotate(511.8267306218268)"><path class="outline" fill="#A5ABB6" stroke="none" d="M 24.018736134675446,6.953439040707552 L 24.277555179777966,5.987513214418485 A 131.0413205071023 131.0413205071023 0 0 0 48.90351801775059,10.122920146728461 L 48.832624145736034,11.120404010713656 A 132.0413205071023 132.0413205071023 0 0 1 24.018736134675446,6.953439040707552 Z M 63.77816654891776,11.33448566830566 L 63.735872046673535,10.33538048111069 A 131.0413205071023 131.0413205071023 0 0 0 88.47017921520276,6.907015698032608 L 87.77703980370326,3.988187550260607 L 95.39630146192067,5.7761617624957875 L 89.39436509720208,10.79878656172861 L 88.70122568570258,7.879958413956609 A 132.0413205071023 132.0413205071023 0 0 1 63.77816654891776,11.33448566830566"/><text text-anchor="middle" pointer-events="none" font-size="8px" fill="#000000" x="56.3095249847665" y="13.939145168451802" transform="rotate(180 56.3095249847665 10.939145168451802)" font-family="sans-serif">75</text></g><g class="relationship" transform="translate(-183.37384640589602 71.74784627131845) rotate(189.95604442265267)"><path class="outline" fill="#A5ABB6" stroke="none" d="M 24.018736134675446,6.953439040707552 L 24.277555179777966,5.987513214418485 A 164.9926300277372 164.9926300277372 0 0 0 57.47836703785701,11.335636863621858 L 57.42077402238077,12.333977008346267 A 165.9926300277372 165.9926300277372 0 0 1 24.018736134675446,6.953439040707552 Z M 72.35799008028098,12.52238282050834 L 72.32559587129188,11.522907650619686 A 164.9926300277372 164.9926300277372 0 0 0 105.65073766470749,7.013887906654205 L 104.94761630360738,4.097448236171595 L 112.57295045601694,5.859344675834357 L 106.58823281284099,10.90247413396435 L 105.88511145174087,7.986034463481742 A 165.9926300277372 165.9926300277372 0 0 1 72.35799008028098,12.52238282050834"/><text text-anchor="middle" pointer-events="none" font-size="8px" fill="#000000" x="64.89356763330262" y="15.096338016757102" transform="rotate(180 64.89356763330262 12.096338016757102)" font-family="sans-serif">95</text></g><g class="relationship" transform="translate(-183.37384640589602 71.74784627131845) rotate(218.0169798541785)"><path class="outline" fill="#A5ABB6" stroke="none" d="M 24.018736134675446,6.953439040707552 L 24.277555179777966,5.987513214418485 A 111.33391395784841 111.33391395784841 0 0 0 41.75196157184846,9.202001172591338 L 41.65009745423269,10.19679949463574 A 112.33391395784841 112.33391395784841 0 0 1 24.018736134675446,6.953439040707552 Z M 61.057684900434346,10.49840540668832 L 60.98678207027436,9.50092217942317 A 111.33391395784841 111.33391395784841 0 0 0 78.55263612213079,6.830981540129966 L 77.86659870354434,3.910475991376594 L 85.4814886389864,5.716978488220465 L 79.46735268024607,10.724988938467796 L 78.78131526165961,7.804483389714423 A 112.33391395784841 112.33391395784841 0 0 1 61.057684900434346,10.49840540668832"/><text text-anchor="middle" pointer-events="none" font-size="8px" fill="#000000" x="51.35513411936811" y="13.267622233885987" transform="rotate(180 51.35513411936811 10.267622233885987)" font-family="sans-serif">549</text></g><g class="relationship" transform="translate(-75.02728633175772 65.83466082473188) rotate(279.0886001579271)"><path class="outline" fill="#A5ABB6" stroke="none" d="M 25 0.5 L 65.06630022066159 0.5 L 65.06630022066159 -0.5 L 25 -0.5 Z M 79.96473772066159 0.5 L 120.03103794132318 0.5 L 120.03103794132318 3.5 L 127.03103794132318 0 L 120.03103794132318 -3.5 L 120.03103794132318 -0.5 L 79.96473772066159 -0.5 Z"/><text text-anchor="middle" pointer-events="none" font-size="8px" fill="#000000" x="72.51551897066159" y="3" font-family="sans-serif">13</text></g><g class="relationship" transform="translate(-75.02728633175772 65.83466082473188) rotate(419.4943405894104)"><path class="outline" fill="#A5ABB6" stroke="none" d="M 25 0.5 L 86.83253063704912 0.5 L 86.83253063704912 -0.5 L 25 -0.5 Z M 101.73096813704912 0.5 L 163.56349877409824 0.5 L 163.56349877409824 3.5 L 170.56349877409824 0 L 163.56349877409824 -3.5 L 163.56349877409824 -0.5 L 101.73096813704912 -0.5 Z"/><text text-anchor="middle" pointer-events="none" font-size="8px" fill="#000000" x="94.28174938704912" y="3" font-family="sans-serif">15</text></g><g class="relationship" transform="translate(-75.02728633175772 65.83466082473188) rotate(536.8760910820974)"><path class="outline" fill="#A5ABB6" stroke="none" d="M 25 0.5 L 45.52929104244598 0.5 L 45.52929104244598 -0.5 L 25 -0.5 Z M 55.97850979244598 0.5 L 76.50780083489197 0.5 L 76.50780083489197 3.5 L 83.50780083489197 0 L 76.50780083489197 -3.5 L 76.50780083489197 -0.5 L 55.97850979244598 -0.5 Z"/><text text-anchor="middle" pointer-events="none" font-size="8px" fill="#000000" x="50.75390041744598" y="3" transform="rotate(180 50.75390041744598 0)" font-family="sans-serif">8</text></g><g class="relationship" transform="translate(-231.4495966341605 110.64239008010199) rotate(321.02623222379975)"><path class="outline" fill="#A5ABB6" stroke="none" d="M 24.018736134675446,6.953439040707552 L 24.277555179777966,5.987513214418485 A 13.197759569286585 13.197759569286585 0 0 0 27.344956461755338,6.432615761579074 L 27.318555749921725,7.432267202039537 A 14.197759569286585 14.197759569286585 0 0 1 24.018736134675446,6.953439040707552 Z M 27.318555749921725,7.432267202039537 L 27.344956461755338,6.432615761579074 A 13.197759569286585 13.197759569286585 0 0 0 30.431575657464105,6.150040386064137 L 29.80915434403687,3.2153186431059537 L 37.382996609937734,5.186844278560287 L 31.26147074203375,10.06300271000838 L 30.639049428606516,7.128280967050197 A 14.197759569286585 14.197759569286585 0 0 1 27.318555749921725,7.432267202039537"/><text text-anchor="middle" pointer-events="none" font-size="8px" fill="#000000" x="27.33175610583853" y="9.932441481809306" font-family="sans-serif"/></g><g class="relationship" transform="translate(-231.4495966341605 110.64239008010199) rotate(215.80040406728955)"><path class="outline" fill="#A5ABB6" stroke="none" d="M 24.018736134675446,6.953439040707552 L 24.277555179777966,5.987513214418485 A 105.59509219920028 105.59509219920028 0 0 0 40.318619988926876,8.980404932735595 L 40.21171202676454,9.974673853916542 A 106.59509219920028 106.59509219920028 0 0 1 24.018736134675446,6.953439040707552 Z M 59.621161118461494,10.283930054226047 L 59.545983313903676,9.28675990941531 A 105.59509219920028 105.59509219920028 0 0 0 75.67425447956921,6.806431250618881 L 74.99051024861913,3.885387973527203 L 82.60397949794147,5.697868591250645 L 76.58591345416932,10.70115562007445 L 75.90216922321923,7.780112342982773 A 106.59509219920028 106.59509219920028 0 0 1 59.621161118461494,10.283930054226047"/><text text-anchor="middle" pointer-events="none" font-size="8px" fill="#000000" x="49.917347762071344" y="13.072114142196895" transform="rotate(180 49.917347762071344 10.072114142196895)" font-family="sans-serif">135</text></g><g class="relationship" transform="translate(-231.4495966341605 110.64239008010199) rotate(250.15760045746708)"><path class="outline" fill="#A5ABB6" stroke="none" d="M 24.018736134675446,6.953439040707552 L 24.277555179777966,5.987513214418485 A 118.1856961746238 118.1856961746238 0 0 0 45.6737687365151,9.656554207017734 L 45.595988634781186,10.65352474608811 A 119.1856961746238 119.1856961746238 0 0 1 24.018736134675446,6.953439040707552 Z M 60.5456661590563,10.879199652634384 L 60.49801445140285,9.880335640489733 A 118.1856961746238 118.1856961746238 0 0 0 81.99522655156838,6.858798235232274 L 81.3065908734484,3.938904246947726 L 88.92308513725231,5.738630650999765 L 82.91340745572835,10.751990219611672 L 82.22477177760837,7.832096231327124 A 119.1856961746238 119.1856961746238 0 0 1 60.5456661590563,10.879199652634384"/><text text-anchor="middle" pointer-events="none" font-size="8px" fill="#000000" x="53.07483211361463" y="13.501072521851484" transform="rotate(180 53.07483211361463 10.501072521851484)" font-family="sans-serif">40</text></g><g class="relationship" transform="translate(-231.4495966341605 110.64239008010199) rotate(522.9429268701606)"><path class="outline" fill="#A5ABB6" stroke="none" d="M 24.018736134675446,6.953439040707552 L 24.277555179777966,5.987513214418485 A 9.486063240854374 9.486063240854374 0 0 0 26.475796393336072,6.307262797651122 L 26.44871111995149,7.306895924335949 A 10.486063240854374 10.486063240854374 0 0 1 24.018736134675446,6.953439040707552 Z M 26.44871111995149,7.306895924335949 L 26.475796393336072,6.307262797651122 A 9.486063240854374 9.486063240854374 0 0 0 28.688126949613626,6.107018599923752 L 28.06972565170719,3.1714471334546346 L 35.640860587692636,5.153344149220263 L 29.512662013488868,10.021113888549241 L 28.894260715582433,7.085542422080124 A 10.486063240854374 10.486063240854374 0 0 1 26.44871111995149,7.306895924335949"/><text text-anchor="middle" pointer-events="none" font-size="8px" fill="#000000" x="26.462253756643783" y="9.807079360993535" transform="rotate(180 26.462253756643783 6.807079360993535)" font-family="sans-serif"/></g><g class="relationship" transform="translate(-268.8341997318807 -67.45381384921463) rotate(450.84713864787796)"><path class="outline" fill="#A5ABB6" stroke="none" d="M 25 0.5 L 27.06163609854707 0.5 L 27.06163609854707 -0.5 L 25 -0.5 Z M 37.51085484854707 0.5 L 39.57249094709414 0.5 L 39.57249094709414 3.5 L 46.57249094709414 0 L 39.57249094709414 -3.5 L 39.57249094709414 -0.5 L 37.51085484854707 -0.5 Z"/><text text-anchor="middle" pointer-events="none" font-size="8px" fill="#000000" x="32.28624547354707" y="3" transform="rotate(180 32.28624547354707 0)" font-family="sans-serif">3</text></g><g class="relationship" transform="translate(-268.8341997318807 -67.45381384921463) rotate(418.452904600218)"><path class="outline" fill="#A5ABB6" stroke="none" d="M 25 0.5 L 72.94633737308561 0.5 L 72.94633737308561 -0.5 L 25 -0.5 Z M 83.39555612308561 0.5 L 131.34189349617122 0.5 L 131.34189349617122 3.5 L 138.34189349617122 0 L 131.34189349617122 -3.5 L 131.34189349617122 -0.5 L 83.39555612308561 -0.5 Z"/><text text-anchor="middle" pointer-events="none" font-size="8px" fill="#000000" x="78.17094674808561" y="3" font-family="sans-serif">2</text></g><g class="relationship" transform="translate(-268.8341997318807 -67.45381384921463) rotate(349.9123770799325)"><path class="outline" fill="#A5ABB6" stroke="none" d="M 25 0.5 L 40.49203904639805 0.5 L 40.49203904639805 -0.5 L 25 -0.5 Z M 50.94125779639805 0.5 L 66.4332968427961 0.5 L 66.4332968427961 3.5 L 73.4332968427961 0 L 66.4332968427961 -3.5 L 66.4332968427961 -0.5 L 50.94125779639805 -0.5 Z"/><text text-anchor="middle" pointer-events="none" font-size="8px" fill="#000000" x="45.71664842139805" y="3" font-family="sans-serif">1</text></g><g class="relationship" transform="translate(-268.8341997318807 -67.45381384921463) rotate(402.95358193124406)"><path class="outline" fill="#A5ABB6" stroke="none" d="M 24.018736134675446,-6.953439040707552 L 24.277555179777966,-5.987513214418485 A 78.91762299231347 78.91762299231347 0 0 1 38.09542671687292,-8.39946692227008 L 38.011700015066666,-9.395955677552664 A 79.91762299231347 79.91762299231347 0 0 0 24.018736134675446,-6.953439040707552 Z M 48.51741293045219,-9.585481545092179 L 48.46968285811995,-8.586621274486149 A 78.91762299231347 78.91762299231347 0 0 1 62.36555950000312,-6.674630987365449 L 61.69412694187928,-3.750733191632622 L 69.29989311640036,-5.595271317698634 L 63.260802910834904,-10.573161381675884 L 62.589370352711065,-7.649263585943057 A 79.91762299231347 79.91762299231347 0 0 0 48.51741293045219,-9.585481545092179"/><text text-anchor="middle" pointer-events="none" font-size="8px" fill="#000000" x="43.27045695219392" y="-6.163645880793808" font-family="sans-serif">9</text></g><g class="relationship" transform="translate(-268.8341997318807 -67.45381384921463) rotate(473.1312140227306)"><path class="outline" fill="#A5ABB6" stroke="none" d="M 25 0.5 L 54.0938700223723 0.5 L 54.0938700223723 -0.5 L 25 -0.5 Z M 64.5430887723723 0.5 L 93.6369587947446 0.5 L 93.6369587947446 3.5 L 100.6369587947446 0 L 93.6369587947446 -3.5 L 93.6369587947446 -0.5 L 64.5430887723723 -0.5 Z"/><text text-anchor="middle" pointer-events="none" font-size="8px" fill="#000000" x="59.3184793973723" y="3" transform="rotate(180 59.3184793973723 0)" font-family="sans-serif">1</text></g><g class="relationship" transform="translate(-318.1891921542487 48.08289087348528) rotate(369.95604442265267)"><path class="outline" fill="#A5ABB6" stroke="none" d="M 24.018736134675446,6.953439040707552 L 24.277555179777966,5.987513214418485 A 164.9926300277372 164.9926300277372 0 0 0 57.47836703785701,11.335636863621858 L 57.42077402238077,12.333977008346267 A 165.9926300277372 165.9926300277372 0 0 1 24.018736134675446,6.953439040707552 Z M 72.35799008028098,12.52238282050834 L 72.32559587129188,11.522907650619686 A 164.9926300277372 164.9926300277372 0 0 0 105.65073766470749,7.013887906654205 L 104.94761630360738,4.097448236171595 L 112.57295045601694,5.859344675834357 L 106.58823281284099,10.90247413396435 L 105.88511145174087,7.986034463481742 A 165.9926300277372 165.9926300277372 0 0 1 72.35799008028098,12.52238282050834"/><text text-anchor="middle" pointer-events="none" font-size="8px" fill="#000000" x="64.89356763330262" y="15.096338016757102" font-family="sans-serif">92</text></g><g class="relationship" transform="translate(-318.1891921542487 48.08289087348528) rotate(395.80040406728955)"><path class="outline" fill="#A5ABB6" stroke="none" d="M 24.018736134675446,6.953439040707552 L 24.277555179777966,5.987513214418485 A 105.59509219920028 105.59509219920028 0 0 0 40.318619988926876,8.980404932735595 L 40.21171202676454,9.974673853916542 A 106.59509219920028 106.59509219920028 0 0 1 24.018736134675446,6.953439040707552 Z M 59.621161118461494,10.283930054226047 L 59.545983313903676,9.28675990941531 A 105.59509219920028 105.59509219920028 0 0 0 75.67425447956921,6.806431250618881 L 74.99051024861913,3.885387973527203 L 82.60397949794147,5.697868591250645 L 76.58591345416932,10.70115562007445 L 75.90216922321923,7.780112342982773 A 106.59509219920028 106.59509219920028 0 0 1 59.621161118461494,10.283930054226047"/><text text-anchor="middle" pointer-events="none" font-size="8px" fill="#000000" x="49.917347762071344" y="13.072114142196895" font-family="sans-serif">133</text></g><g class="relationship" transform="translate(-318.1891921542487 48.08289087348528) rotate(429.94143438208175)"><path class="outline" fill="#A5ABB6" stroke="none" d="M 24.018736134675446,6.953439040707552 L 24.277555179777966,5.987513214418485 A 62.08703023973949 62.08703023973949 0 0 0 29.584166942466986,7.163113710063691 L 29.410818433516674,8.147974255747549 A 63.08703023973949 63.08703023973949 0 0 1 24.018736134675446,6.953439040707552 Z M 48.83172508663904,8.529889430721582 L 48.69723050043461,7.5389751022947 A 62.08703023973949 62.08703023973949 0 0 0 54.04595838351592,6.572913531783456 L 53.38402799623824,3.6468499367126967 L 60.98376183656064,5.516086560647331 L 54.92853223321949,10.47433165854447 L 54.266601845941814,7.54826806347371 A 63.08703023973949 63.08703023973949 0 0 1 48.83172508663904,8.529889430721582"/><text text-anchor="middle" pointer-events="none" font-size="8px" fill="#000000" x="39.116315209300296" y="11.590979198983312" font-family="sans-serif">101</text></g><g class="relationship" transform="translate(-318.1891921542487 48.08289087348528) rotate(317.68356900175706)"><path class="outline" fill="#A5ABB6" stroke="none" d="M 24.018736134675446,6.953439040707552 L 24.277555179777966,5.987513214418485 A 20.57738349718525 20.57738349718525 0 0 0 29.086302713814415,6.682173011470695 L 29.061174581586908,7.681857250103452 A 21.57738349718525 21.57738349718525 0 0 1 24.018736134675446,6.953439040707552 Z M 29.061174581586908,7.681857250103452 L 29.086302713814415,6.682173011470695 A 20.57738349718525 20.57738349718525 0 0 0 33.92387752290102,6.2299838406220935 L 33.293986419943614,3.296856295080458 L 40.87282364632441,5.249092524645078 L 34.76373232684424,10.140820568010941 L 34.13384122388683,7.207693022469305 A 21.57738349718525 21.57738349718525 0 0 1 29.061174581586908,7.681857250103452"/><text text-anchor="middle" pointer-events="none" font-size="8px" fill="#000000" x="29.07373864770066" y="10.182015130787075" font-family="sans-serif"/></g><g class="relationship" transform="translate(-269.8923861228702 4.110854122723846) rotate(497.68356900175706)"><path class="outline" fill="#A5ABB6" stroke="none" d="M 24.018736134675446,6.953439040707552 L 24.277555179777966,5.987513214418485 A 20.57738349718525 20.57738349718525 0 0 0 29.086302713814415,6.682173011470695 L 29.061174581586908,7.681857250103452 A 21.57738349718525 21.57738349718525 0 0 1 24.018736134675446,6.953439040707552 Z M 29.061174581586908,7.681857250103452 L 29.086302713814415,6.682173011470695 A 20.57738349718525 20.57738349718525 0 0 0 33.92387752290102,6.2299838406220935 L 33.293986419943614,3.296856295080458 L 40.87282364632441,5.249092524645078 L 34.76373232684424,10.140820568010941 L 34.13384122388683,7.207693022469305 A 21.57738349718525 21.57738349718525 0 0 1 29.061174581586908,7.681857250103452"/><text text-anchor="middle" pointer-events="none" font-size="8px" fill="#000000" x="29.07373864770066" y="10.182015130787075" transform="rotate(180 29.07373864770066 7.182015130787075)" font-family="sans-serif"/></g><g class="relationship" transform="translate(-269.8923861228702 4.110854122723846) rotate(430.1576004574671)"><path class="outline" fill="#A5ABB6" stroke="none" d="M 24.018736134675446,6.953439040707552 L 24.277555179777966,5.987513214418485 A 118.1856961746238 118.1856961746238 0 0 0 45.6737687365151,9.656554207017734 L 45.595988634781186,10.65352474608811 A 119.1856961746238 119.1856961746238 0 0 1 24.018736134675446,6.953439040707552 Z M 60.5456661590563,10.879199652634384 L 60.49801445140285,9.880335640489733 A 118.1856961746238 118.1856961746238 0 0 0 81.99522655156838,6.858798235232274 L 81.3065908734484,3.938904246947726 L 88.92308513725231,5.738630650999765 L 82.91340745572835,10.751990219611672 L 82.22477177760837,7.832096231327124 A 119.1856961746238 119.1856961746238 0 0 1 60.5456661590563,10.879199652634384"/><text text-anchor="middle" pointer-events="none" font-size="8px" fill="#000000" x="53.07483211361463" y="13.501072521851484" font-family="sans-serif">53</text></g><g class="relationship" transform="translate(-269.8923861228702 4.110854122723846) rotate(458.7081164370781)"><path class="outline" fill="#A5ABB6" stroke="none" d="M 24.018736134675446,6.953439040707552 L 24.277555179777966,5.987513214418485 A 142.7209961903395 142.7209961903395 0 0 0 51.84672753874904,10.542715923812949 L 51.78107679470157,11.540558586664162 A 143.7209961903395 143.7209961903395 0 0 1 24.018736134675446,6.953439040707552 Z M 66.72338697701296,11.74507087375082 L 66.68507023837947,10.745805229619833 A 142.7209961903395 142.7209961903395 0 0 0 94.36858442865267,6.946834532277036 L 93.67172584055965,4.0288920879850005 L 101.29325989668293,5.8071549007752905 L 95.29772921277672,10.837424457999749 L 94.6008706246837,7.919482013707714 A 143.7209961903395 143.7209961903395 0 0 1 66.72338697701296,11.74507087375082"/><text text-anchor="middle" pointer-events="none" font-size="8px" fill="#000000" x="59.25641476492572" y="14.337200444697686" transform="rotate(180 59.25641476492572 11.337200444697686)" font-family="sans-serif">68</text></g><g class="relationship" transform="translate(-269.8923861228702 4.110854122723846) rotate(398.0169798541785)"><path class="outline" fill="#A5ABB6" stroke="none" d="M 24.018736134675446,6.953439040707552 L 24.277555179777966,5.987513214418485 A 111.33391395784841 111.33391395784841 0 0 0 41.75196157184846,9.202001172591338 L 41.65009745423269,10.19679949463574 A 112.33391395784841 112.33391395784841 0 0 1 24.018736134675446,6.953439040707552 Z M 61.057684900434346,10.49840540668832 L 60.98678207027436,9.50092217942317 A 111.33391395784841 111.33391395784841 0 0 0 78.55263612213079,6.830981540129966 L 77.86659870354434,3.910475991376594 L 85.4814886389864,5.716978488220465 L 79.46735268024607,10.724988938467796 L 78.78131526165961,7.804483389714423 A 112.33391395784841 112.33391395784841 0 0 1 61.057684900434346,10.49840540668832"/><text text-anchor="middle" pointer-events="none" font-size="8px" fill="#000000" x="51.35513411936811" y="13.267622233885987" font-family="sans-serif">343</text></g><g class="relationship" transform="translate(-28.601941796652362 277.1637094241717) rotate(291.02780110283595)"><path class="outline" fill="#A5ABB6" stroke="none" d="M 25 0.5 L 83.45414287861327 0.5 L 83.45414287861327 -0.5 L 25 -0.5 Z M 98.35258037861327 0.5 L 156.80672325722654 0.5 L 156.80672325722654 3.5 L 163.80672325722654 0 L 156.80672325722654 -3.5 L 156.80672325722654 -0.5 L 98.35258037861327 -0.5 Z"/><text text-anchor="middle" pointer-events="none" font-size="8px" fill="#000000" x="90.90336162861327" y="3" font-family="sans-serif">17</text></g><g class="relationship" transform="translate(24.245335170304976 234.3280692206538) rotate(276.37351496600513)"><path class="outline" fill="#A5ABB6" stroke="none" d="M 24.018736134675446,-6.953439040707552 L 24.277555179777966,-5.987513214418485 A 159.7635614081352 159.7635614081352 0 0 1 56.154110781089535,-11.150214227182943 L 56.09481505231995,-12.14845468746779 A 160.7635614081352 160.7635614081352 0 0 0 24.018736134675446,-6.953439040707552 Z M 71.03311948791475,-12.340414698354778 L 70.99949425683032,-11.340980186325822 A 159.7635614081352 159.7635614081352 0 0 1 102.99818566072078,-6.999088065453503 L 102.29644658306634,-4.082315488290057 L 109.92094485371123,-5.847825647120373 L 103.93383776426003,-10.888118168338098 L 103.2320986866056,-7.971345591174652 A 160.7635614081352 160.7635614081352 0 0 0 71.03311948791475,-12.340414698354778"/><text text-anchor="middle" pointer-events="none" font-size="8px" fill="#000000" x="63.56816080593765" y="-8.918094251192144" font-family="sans-serif">85</text></g><g class="relationship" transform="translate(24.245335170304976 234.3280692206538) rotate(364.85109211810686)"><path class="outline" fill="#A5ABB6" stroke="none" d="M 24.018736134675446,6.953439040707552 L 24.277555179777966,5.987513214418485 A 8.884195017087753 8.884195017087753 0 0 0 26.33531050116077,6.286947947566761 L 26.30811123899018,7.286577979197151 A 9.884195017087753 9.884195017087753 0 0 1 24.018736134675446,6.953439040707552 Z M 26.30811123899018,7.286577979197151 L 26.33531050116077,6.286947947566761 A 8.884195017087753 8.884195017087753 0 0 0 28.406303949611587,6.099853697070899 L 27.7885721588907,3.164141273359618 L 35.35925490339139,5.147764922674047 L 29.229946337239433,10.014136928685941 L 28.612214546518548,7.07842450497466 A 9.884195017087753 9.884195017087753 0 0 1 26.30811123899018,7.286577979197151"/><text text-anchor="middle" pointer-events="none" font-size="8px" fill="#000000" x="26.321710870075474" y="9.786762963381957" font-family="sans-serif"/></g><g class="relationship" transform="translate(-181.6363676254324 213.89931171259957) rotate(269.29972410898347)"><path class="outline" fill="#A5ABB6" stroke="none" d="M 25 0.5 L 60.13182295525412 0.5 L 60.13182295525412 -0.5 L 25 -0.5 Z M 75.03026045525412 0.5 L 110.16208341050825 0.5 L 110.16208341050825 3.5 L 117.16208341050825 0 L 110.16208341050825 -3.5 L 110.16208341050825 -0.5 L 75.03026045525412 -0.5 Z"/><text text-anchor="middle" pointer-events="none" font-size="8px" fill="#000000" x="67.58104170525412" y="3" transform="rotate(180 67.58104170525412 0)" font-family="sans-serif">23</text></g><g class="relationship" transform="translate(-181.6363676254324 213.89931171259957) rotate(382.4601904374052)"><path class="outline" fill="#A5ABB6" stroke="none" d="M 24.018736134675446,-6.953439040707552 L 24.277555179777966,-5.987513214418485 A 221.45019631114948 221.45019631114948 0 0 1 71.83611586117567,-13.318198078566468 L 71.79205643911081,-14.317226990724322 A 222.45019631114948 222.45019631114948 0 0 0 24.018736134675446,-6.953439040707552 Z M 86.72042860863884,-14.47414668988364 L 86.69737920177444,-13.474412362753071 A 221.45019631114948 221.45019631114948 0 0 1 134.39952745745128,-7.145061175067186 L 133.68415517767522,-4.231602319801168 L 141.3168268330347,-5.9614356648006686 L 135.3533571638194,-11.029672982088542 L 134.63798488404333,-8.116214126822525 A 222.45019631114948 222.45019631114948 0 0 0 86.72042860863884,-14.47414668988364"/><text text-anchor="middle" pointer-events="none" font-size="8px" fill="#000000" x="79.2601812067333" y="-11.020984850153098" font-family="sans-serif">18</text></g><g class="relationship" transform="translate(-181.6363676254324 213.89931171259957) rotate(244.24639777974676)"><path class="outline" fill="#A5ABB6" stroke="none" d="M 25 0.5 L 46.373005668840676 0.5 L 46.373005668840676 -0.5 L 25 -0.5 Z M 61.271443168840676 0.5 L 82.64444883768135 0.5 L 82.64444883768135 3.5 L 89.64444883768135 0 L 82.64444883768135 -3.5 L 82.64444883768135 -0.5 L 61.271443168840676 -0.5 Z"/><text text-anchor="middle" pointer-events="none" font-size="8px" fill="#000000" x="53.822224418840676" y="3" transform="rotate(180 53.822224418840676 0)" font-family="sans-serif">36</text></g><g class="relationship" transform="translate(-181.6363676254324 213.89931171259957) rotate(218.59730974583408)"><path class="outline" fill="#A5ABB6" stroke="none" d="M 24.018736134675446,-6.953439040707552 L 24.277555179777966,-5.987513214418485 A 165.7436382038169 165.7436382038169 0 0 1 57.66865239916457,-11.362234895359563 L 57.611295670089675,-12.360588643101238 A 166.7436382038169 166.7436382038169 0 0 0 24.018736134675446,-6.953439040707552 Z M 72.54836021662105,-12.548494560833433 L 72.51613592954783,-11.549013898027681 A 165.7436382038169 165.7436382038169 0 0 1 106.03187128304428,-7.0159696255222865 L 105.32855549332291,-4.099576836488442 L 112.95400708907681,-5.860964914344734 L 106.96962566933945,-10.90449334423408 L 106.26630987961808,-7.988100555200235 A 166.7436382038169 166.7436382038169 0 0 0 72.54836021662105,-12.548494560833433"/><text text-anchor="middle" pointer-events="none" font-size="8px" fill="#000000" x="65.0840120434295" y="-9.12193806488483" transform="rotate(180 65.0840120434295 -12.12193806488483)" font-family="sans-serif">19</text></g><g class="relationship" transform="translate(-64.6317728607536 190.24984746493118) rotate(386.37891568416177)"><path class="outline" fill="#A5ABB6" stroke="none" d="M 25 0.5 L 40.87889343758148 0.5 L 40.87889343758148 -0.5 L 25 -0.5 Z M 51.32811218758148 0.5 L 67.20700562516296 0.5 L 67.20700562516296 3.5 L 74.20700562516296 0 L 67.20700562516296 -3.5 L 67.20700562516296 -0.5 L 51.32811218758148 -0.5 Z"/><text text-anchor="middle" pointer-events="none" font-size="8px" fill="#000000" x="46.10350281258148" y="3" font-family="sans-serif">9</text></g><g class="relationship" transform="translate(-64.6317728607536 190.24984746493118) rotate(319.28201097272995)"><path class="outline" fill="#A5ABB6" stroke="none" d="M 25 0.5 L 59.736653232745326 0.5 L 59.736653232745326 -0.5 L 25 -0.5 Z M 70.18587198274533 0.5 L 104.92252521549065 0.5 L 104.92252521549065 3.5 L 111.92252521549065 0 L 104.92252521549065 -3.5 L 104.92252521549065 -0.5 L 70.18587198274533 -0.5 Z"/><text text-anchor="middle" pointer-events="none" font-size="8px" fill="#000000" x="64.96126260774533" y="3" font-family="sans-serif">6</text></g><g class="relationship" transform="translate(-64.6317728607536 190.24984746493118) rotate(378.31047644313475)"><path class="outline" fill="#A5ABB6" stroke="none" d="M 25 0.5 L 67.5503807949628 0.5 L 67.5503807949628 -0.5 L 25 -0.5 Z M 81.8550682949628 0.5 L 124.40544908992561 0.5 L 124.40544908992561 3.5 L 131.4054490899256 0 L 124.40544908992561 -3.5 L 124.40544908992561 -0.5 L 81.8550682949628 -0.5 Z"/><text text-anchor="middle" pointer-events="none" font-size="8px" fill="#000000" x="74.7027245449628" y="3" font-family="sans-serif">11</text></g><g class="relationship" transform="translate(-64.6317728607536 190.24984746493118) rotate(299.87612167665185)"><path class="outline" fill="#A5ABB6" stroke="none" d="M 25 0.5 L 35.63238786830959 0.5 L 35.63238786830959 -0.5 L 25 -0.5 Z M 50.53082536830959 0.5 L 61.163213236619185 0.5 L 61.163213236619185 3.5 L 68.16321323661919 0 L 61.163213236619185 -3.5 L 61.163213236619185 -0.5 L 50.53082536830959 -0.5 Z"/><text text-anchor="middle" pointer-events="none" font-size="8px" fill="#000000" x="43.08160661830959" y="3" font-family="sans-serif">12</text></g><g class="relationship" transform="translate(-64.6317728607536 190.24984746493118) rotate(224.94202119551113)"><path class="outline" fill="#A5ABB6" stroke="none" d="M 25 0.5 L 75.15388059217068 0.5 L 75.15388059217068 -0.5 L 25 -0.5 Z M 85.60309934217068 0.5 L 135.75697993434136 0.5 L 135.75697993434136 3.5 L 142.75697993434136 0 L 135.75697993434136 -3.5 L 135.75697993434136 -0.5 L 85.60309934217068 -0.5 Z"/><text text-anchor="middle" pointer-events="none" font-size="8px" fill="#000000" x="80.37848996717068" y="3" transform="rotate(180 80.37848996717068 0)" font-family="sans-serif">9</text></g><g class="relationship" transform="translate(-64.6317728607536 190.24984746493118) rotate(427.48372309478987)"><path class="outline" fill="#A5ABB6" stroke="none" d="M 24.018736134675446,-6.953439040707552 L 24.277555179777966,-5.987513214418485 A 79.7662480460293 79.7662480460293 0 0 1 36.104967815354534,-8.216620939592417 L 35.99442467547889,-9.210492266388016 A 80.7662480460293 80.7662480460293 0 0 0 24.018736134675446,-6.953439040707552 Z M 50.96174270795796,-9.479381473162306 L 50.88696935245859,-8.482180918956999 A 79.7662480460293 79.7662480460293 0 0 1 62.78681638615649,-6.6793355353431405 L 62.11494435406395,-3.755538693479492 L 69.7209876891871,-5.598933600771158 L 63.682645762279876,-10.577731324494671 L 63.01077373018734,-7.653934482631023 A 80.7662480460293 80.7662480460293 0 0 0 50.96174270795796,-9.479381473162306"/><text text-anchor="middle" pointer-events="none" font-size="8px" fill="#000000" x="43.48082164807863" y="-6.192532598537099" font-family="sans-serif">10</text></g><g class="relationship" transform="translate(83.85456315473371 239.38712986553924) rotate(222.60352015387446)"><path class="outline" fill="#A5ABB6" stroke="none" d="M 24.018736134675446,-6.953439040707552 L 24.277555179777966,-5.987513214418485 A 111.77749943296222 111.77749943296222 0 0 1 44.06822303819031,-9.421968234958854 L 43.98645812257547,-10.418619878500621 A 112.77749943296222 112.77749943296222 0 0 0 24.018736134675446,-6.953439040707552 Z M 58.93846716488333,-10.650541154737255 L 58.88765236275762,-9.651833061306093 A 111.77749943296222 111.77749943296222 0 0 1 78.77531788048061,-6.832830431778704 L 78.08910776225775,-3.912365456188587 L 85.70410450989469,-5.718417651857076 L 79.69026470477775,-10.726783732565528 L 79.00405458655489,-7.8063187569754104 A 112.77749943296222 112.77749943296222 0 0 0 58.93846716488333,-10.650541154737255"/><text text-anchor="middle" pointer-events="none" font-size="8px" fill="#000000" x="51.46636903038488" y="-7.28273502170218" transform="rotate(180 51.46636903038488 -10.28273502170218)" font-family="sans-serif">64</text></g><g class="relationship" transform="translate(83.85456315473371 239.38712986553924) rotate(521.4316830910839)"><path class="outline" fill="#A5ABB6" stroke="none" d="M 24.018736134675446,-6.953439040707552 L 24.277555179777966,-5.987513214418485 A 128.88054347379074 128.88054347379074 0 0 1 48.35989960892675,-10.044879960493915 L 48.28793843841138,-11.042287394764429 A 129.88054347379074 129.88054347379074 0 0 0 24.018736134675446,-6.953439040707552 Z M 63.23413017357404,-11.25823584648603 L 63.19101489510474,-10.259165742458038 A 128.88054347379074 128.88054347379074 0 0 1 87.38052714007209,-6.899249751411965 L 86.68811309608189,-3.9802494445114758 L 94.30693019683827,-5.770117033251601 L 88.30374586539234,-10.791250160612618 L 87.61133182140215,-7.872249853712129 A 129.88054347379074 129.88054347379074 0 0 0 63.23413017357404,-11.25823584648603"/><text text-anchor="middle" pointer-events="none" font-size="8px" fill="#000000" x="55.765148525657594" y="-7.865508868467259" transform="rotate(180 55.765148525657594 -10.86550886846726)" font-family="sans-serif">51</text></g><g class="relationship" transform="translate(83.85456315473371 239.38712986553924) rotate(252.10435849432537)"><path class="outline" fill="#A5ABB6" stroke="none" d="M 24.018736134675446,-6.953439040707552 L 24.277555179777966,-5.987513214418485 A 181.9781321723848 181.9781321723848 0 0 1 61.78732031280299,-11.935420972298346 L 61.734623644522614,-12.934031537610053 A 182.9781321723848 182.9781321723848 0 0 0 24.018736134675446,-6.953439040707552 Z M 76.66867747989917,-13.111733652711365 L 76.63975754373577,-12.112151921539635 A 181.9781321723848 181.9781321723848 0 0 1 114.28043194434922,-7.058468344390103 L 113.57314690101995,-4.143035637658095 L 121.20098910061212,-5.894042027743832 L 115.22347866878823,-10.945711953366114 L 114.51619362545897,-8.030279246634105 A 182.9781321723848 182.9781321723848 0 0 0 76.66867747989917,-13.111733652711365"/><text text-anchor="middle" pointer-events="none" font-size="8px" fill="#000000" x="69.2057858872977" y="-9.675350617626975" transform="rotate(180 69.2057858872977 -12.675350617626975)" font-family="sans-serif">71</text></g><g class="relationship" transform="translate(83.85456315473371 239.38712986553924) rotate(184.85109211810686)"><path class="outline" fill="#A5ABB6" stroke="none" d="M 24.018736134675446,6.953439040707552 L 24.277555179777966,5.987513214418485 A 8.884195017087753 8.884195017087753 0 0 0 26.33531050116077,6.286947947566761 L 26.30811123899018,7.286577979197151 A 9.884195017087753 9.884195017087753 0 0 1 24.018736134675446,6.953439040707552 Z M 26.30811123899018,7.286577979197151 L 26.33531050116077,6.286947947566761 A 8.884195017087753 8.884195017087753 0 0 0 28.406303949611587,6.099853697070899 L 27.7885721588907,3.164141273359618 L 35.35925490339139,5.147764922674047 L 29.229946337239433,10.014136928685941 L 28.612214546518548,7.07842450497466 A 9.884195017087753 9.884195017087753 0 0 1 26.30811123899018,7.286577979197151"/><text text-anchor="middle" pointer-events="none" font-size="8px" fill="#000000" x="26.321710870075474" y="9.786762963381957" transform="rotate(180 26.321710870075474 6.786762963381957)" font-family="sans-serif"/></g></g><g class="layer nodes"><g class="node" transform="translate(129.62897879276085,65.444659702273)"><circle class="outline" cx="0" cy="0" r="25" fill="#F79767" stroke="#f36924" stroke-width="2px"/><text text-anchor="middle" pointer-events="none" font-family="sans-serif" dy="1.5625" font-size="25" fill="#FFFFFF"/><text text-anchor="middle" pointer-events="none" x="0" y="5" font-size="10px" fill="#FFFFFF" font-family="sans-serif"> lagos-ni…</text></g><g class="node" transform="translate(126.44471984569437,5.718093333408178)"><circle class="outline" cx="0" cy="0" r="25" fill="#F79767" stroke="#f36924" stroke-width="2px"/><text text-anchor="middle" pointer-events="none" font-family="sans-serif" dy="1.5625" font-size="25" fill="#FFFFFF"/><text text-anchor="middle" pointer-events="none" x="0" y="5" font-size="10px" fill="#FFFFFF" font-family="sans-serif"> dahab-e…</text></g><g class="node" transform="translate(2.85804979877762,164.89783324064587)"><circle class="outline" cx="0" cy="0" r="25" fill="#F79767" stroke="#f36924" stroke-width="2px"/><text text-anchor="middle" pointer-events="none" font-family="sans-serif" dy="1.5625" font-size="25" fill="#FFFFFF"/><text text-anchor="middle" pointer-events="none" x="0" y="5" font-size="10px" fill="#FFFFFF" font-family="sans-serif"> munich-…</text></g><g class="node" transform="translate(-18.22471566437694,109.4676133850049)"><circle class="outline" cx="0" cy="0" r="25" fill="#F79767" stroke="#f36924" stroke-width="2px"/><text text-anchor="middle" pointer-events="none" font-family="sans-serif" dy="1.5625" font-size="25" fill="#FFFFFF"/><text text-anchor="middle" pointer-events="none" x="0" y="5" font-size="10px" fill="#FFFFFF" font-family="sans-serif"> istanbul-…</text></g><g class="node" transform="translate(76.73963708113604,-83.74145236142888)"><circle class="outline" cx="0" cy="0" r="25" fill="#F79767" stroke="#f36924" stroke-width="2px"/><text text-anchor="middle" pointer-events="none" font-family="sans-serif" dy="1.5625" font-size="25" fill="#FFFFFF"/><text text-anchor="middle" pointer-events="none" x="0" y="5" font-size="10px" fill="#FFFFFF" font-family="sans-serif"> denver-c…</text></g><g class="node" transform="translate(141.328288731038,-82.85277259951631)"><circle class="outline" cx="0" cy="0" r="25" fill="#F79767" stroke="#f36924" stroke-width="2px"/><text text-anchor="middle" pointer-events="none" font-family="sans-serif" dy="1.5625" font-size="25" fill="#FFFFFF"/><text text-anchor="middle" pointer-events="none" x="0" y="5" font-size="10px" fill="#FFFFFF" font-family="sans-serif"> washing…</text></g><g class="node" transform="translate(99.74174273467005,160.9059596655847)"><circle class="outline" cx="0" cy="0" r="25" fill="#F79767" stroke="#f36924" stroke-width="2px"/><text text-anchor="middle" pointer-events="none" font-family="sans-serif" dy="1.5625" font-size="25" fill="#FFFFFF"/><text text-anchor="middle" pointer-events="none" x="0" y="5" font-size="10px" fill="#FFFFFF" font-family="sans-serif"> marrake…</text></g><g class="node selected" transform="translate(270.23758225705086,110.32663023853831)"><circle class="outline" cx="0" cy="0" r="25" fill="#F79767" stroke="#f36924" stroke-width="2px"/><text text-anchor="middle" pointer-events="none" font-family="sans-serif" dy="1.5625" font-size="25" fill="#FFFFFF"/><text text-anchor="middle" pointer-events="none" x="0" y="5" font-size="10px" fill="#FFFFFF" font-family="sans-serif"> abuja-ni…</text></g><g class="node" transform="translate(4.281702841156348,30.8890120441975)"><circle class="outline" cx="0" cy="0" r="25" fill="#F79767" stroke="#f36924" stroke-width="2px"/><text text-anchor="middle" pointer-events="none" font-family="sans-serif" dy="1.5625" font-size="25" fill="#FFFFFF"/><text text-anchor="middle" pointer-events="none" x="0" y="5" font-size="10px" fill="#FFFFFF" font-family="sans-serif"> dakar-se…</text></g><g class="node" transform="translate(154.74299629695935,139.20362747009446)"><circle class="outline" cx="0" cy="0" r="25" fill="#F79767" stroke="#f36924" stroke-width="2px"/><text text-anchor="middle" pointer-events="none" font-family="sans-serif" dy="1.5625" font-size="25" fill="#FFFFFF"/><text text-anchor="middle" pointer-events="none" x="0" y="5" font-size="10px" fill="#FFFFFF" font-family="sans-serif"> nairobi-k…</text></g><g class="node" transform="translate(39.14585656166375,100.93030009230904)"><circle class="outline" cx="0" cy="0" r="25" fill="#F79767" stroke="#f36924" stroke-width="2px"/><text text-anchor="middle" pointer-events="none" font-family="sans-serif" dy="1.5625" font-size="25" fill="#FFFFFF"/><text text-anchor="middle" pointer-events="none" x="0" y="5" font-size="10px" fill="#FFFFFF" font-family="sans-serif"> barcelon…</text></g><g class="node" transform="translate(-200.27970774968674,-3.6294728863144026)"><circle class="outline" cx="0" cy="0" r="25" fill="#F79767" stroke="#f36924" stroke-width="2px"/><text text-anchor="middle" pointer-events="none" font-family="sans-serif" dy="1.5625" font-size="25" fill="#FFFFFF"/><text text-anchor="middle" pointer-events="none" x="0" y="5" font-size="10px" fill="#FFFFFF" font-family="sans-serif"> kathman…</text></g><g class="node" transform="translate(-171.92257930112126,-84.69480433196892)"><circle class="outline" cx="0" cy="0" r="25" fill="#F79767" stroke="#f36924" stroke-width="2px"/><text text-anchor="middle" pointer-events="none" font-family="sans-serif" dy="1.5625" font-size="25" fill="#FFFFFF"/><text text-anchor="middle" pointer-events="none" x="0" y="5" font-size="10px" fill="#FFFFFF" font-family="sans-serif"> delhi-india</text></g><g class="node" transform="translate(-288.90976282238853,128.27233181264404)"><circle class="outline" cx="0" cy="0" r="25" fill="#F79767" stroke="#f36924" stroke-width="2px"/><text text-anchor="middle" pointer-events="none" font-family="sans-serif" dy="1.5625" font-size="25" fill="#FFFFFF"/><text text-anchor="middle" pointer-events="none" x="0" y="5" font-size="10px" fill="#FFFFFF" font-family="sans-serif"> canggu-…</text></g><g class="node" transform="translate(-51.01221978825552,-84.28766621700834)"><circle class="outline" cx="0" cy="0" r="25" fill="#F79767" stroke="#f36924" stroke-width="2px"/><text text-anchor="middle" pointer-events="none" font-family="sans-serif" dy="1.5625" font-size="25" fill="#FFFFFF"/><text text-anchor="middle" pointer-events="none" x="0" y="5" font-size="10px" fill="#FFFFFF" font-family="sans-serif"> san-fran…</text></g><g class="node" transform="translate(-139.09010072261572,-18.234456272375795)"><circle class="outline" cx="0" cy="0" r="25" fill="#F79767" stroke="#f36924" stroke-width="2px"/><text text-anchor="middle" pointer-events="none" font-family="sans-serif" dy="1.5625" font-size="25" fill="#FFFFFF"/><text text-anchor="middle" pointer-events="none" x="0" y="5" font-size="10px" fill="#FFFFFF" font-family="sans-serif"> seoul-so…</text></g><g class="node" transform="translate(-183.37384640589602,71.74784627131845)"><circle class="outline" cx="0" cy="0" r="25" fill="#F79767" stroke="#f36924" stroke-width="2px"/><text text-anchor="middle" pointer-events="none" font-family="sans-serif" dy="1.5625" font-size="25" fill="#FFFFFF"/><text text-anchor="middle" pointer-events="none" x="0" y="5" font-size="10px" fill="#FFFFFF" font-family="sans-serif"> bangkok…</text></g><g class="node" transform="translate(-75.02728633175772,65.83466082473188)"><circle class="outline" cx="0" cy="0" r="25" fill="#F79767" stroke="#f36924" stroke-width="2px"/><text text-anchor="middle" pointer-events="none" font-family="sans-serif" dy="1.5625" font-size="25" fill="#FFFFFF"/><text text-anchor="middle" pointer-events="none" x="0" y="5" font-size="10px" fill="#FFFFFF" font-family="sans-serif"> montreal…</text></g><g class="node" transform="translate(-231.4495966341605,110.64239008010199)"><circle class="outline" cx="0" cy="0" r="25" fill="#F79767" stroke="#f36924" stroke-width="2px"/><text text-anchor="middle" pointer-events="none" font-family="sans-serif" dy="1.5625" font-size="25" fill="#FFFFFF"/><text text-anchor="middle" pointer-events="none" x="0" y="5" font-size="10px" fill="#FFFFFF" font-family="sans-serif"> singapor…</text></g><g class="node" transform="translate(-268.8341997318807,-67.45381384921463)"><circle class="outline" cx="0" cy="0" r="25" fill="#F79767" stroke="#f36924" stroke-width="2px"/><text text-anchor="middle" pointer-events="none" font-family="sans-serif" dy="1.5625" font-size="25" fill="#FFFFFF"/><text text-anchor="middle" pointer-events="none" x="0" y="5" font-size="10px" fill="#FFFFFF" font-family="sans-serif"> pokhara…</text></g><g class="node" transform="translate(-318.1891921542487,48.08289087348528)"><circle class="outline" cx="0" cy="0" r="25" fill="#F79767" stroke="#f36924" stroke-width="2px"/><text text-anchor="middle" pointer-events="none" font-family="sans-serif" dy="1.5625" font-size="25" fill="#FFFFFF"/><text text-anchor="middle" pointer-events="none" x="0" y="5" font-size="10px" fill="#FFFFFF" font-family="sans-serif"> kuala-lu…</text></g><g class="node" transform="translate(-269.8923861228702,4.110854122723846)"><circle class="outline" cx="0" cy="0" r="25" fill="#F79767" stroke="#f36924" stroke-width="2px"/><text text-anchor="middle" pointer-events="none" font-family="sans-serif" dy="1.5625" font-size="25" fill="#FFFFFF"/><text text-anchor="middle" pointer-events="none" x="0" y="5" font-size="10px" fill="#FFFFFF" font-family="sans-serif"> chiang-…</text></g><g class="node" transform="translate(-28.601941796652362,277.1637094241717)"><circle class="outline" cx="0" cy="0" r="25" fill="#F79767" stroke="#f36924" stroke-width="2px"/><text text-anchor="middle" pointer-events="none" font-family="sans-serif" dy="1.5625" font-size="25" fill="#FFFFFF"/><text text-anchor="middle" pointer-events="none" x="0" y="5" font-size="10px" fill="#FFFFFF" font-family="sans-serif"> vienna-a…</text></g><g class="node" transform="translate(24.245335170304976,234.3280692206538)"><circle class="outline" cx="0" cy="0" r="25" fill="#F79767" stroke="#f36924" stroke-width="2px"/><text text-anchor="middle" pointer-events="none" font-family="sans-serif" dy="1.5625" font-size="25" fill="#FFFFFF"/><text text-anchor="middle" pointer-events="none" x="0" y="5" font-size="10px" fill="#FFFFFF" font-family="sans-serif"> lisbon-p…</text></g><g class="node" transform="translate(-181.6363676254324,213.89931171259957)"><circle class="outline" cx="0" cy="0" r="25" fill="#F79767" stroke="#f36924" stroke-width="2px"/><text text-anchor="middle" pointer-events="none" font-family="sans-serif" dy="1.5625" font-size="25" fill="#FFFFFF"/><text text-anchor="middle" pointer-events="none" x="0" y="5" font-size="10px" fill="#FFFFFF" font-family="sans-serif"> sydney-…</text></g><g class="node" transform="translate(-64.6317728607536,190.24984746493118)"><circle class="outline" cx="0" cy="0" r="25" fill="#F79767" stroke="#f36924" stroke-width="2px"/><text text-anchor="middle" pointer-events="none" font-family="sans-serif" dy="1.5625" font-size="25" fill="#FFFFFF"/><text text-anchor="middle" pointer-events="none" x="0" y="5" font-size="10px" fill="#FFFFFF" font-family="sans-serif"> zagreb-c…</text></g><g class="node" transform="translate(83.85456315473371,239.38712986553924)"><circle class="outline" cx="0" cy="0" r="25" fill="#F79767" stroke="#f36924" stroke-width="2px"/><text text-anchor="middle" pointer-events="none" font-family="sans-serif" dy="1.5625" font-size="25" fill="#FFFFFF"/><text text-anchor="middle" pointer-events="none" x="0" y="5" font-size="10px" fill="#FFFFFF" font-family="sans-serif"> berlin-ge…</text></g></g></svg>